<?xml version="1.0" standalone="no"?>
<!DOCTYPE svg PUBLIC "-//W3C//DTD SVG 1.1//EN" "http://www.w3.org/Graphics/SVG/1.1/DTD/svg11.dtd" >
<svg xmlns="http://www.w3.org/2000/svg" xmlns:xlink="http://www.w3.org/1999/xlink" version="1.1">
<metadata>
Created by FontForge 20170910 at Mon Feb  5 11:15:06 2018
 By Jimmy Wärting
Copyright \(c\) 2018 by atipo. All rights reserved.
</metadata>
<defs>
<font id="BasierCircle-RegularItalic" horiz-adv-x="254" >
  <font-face 
    font-family="Basier Circle Italic"
    font-weight="400"
    font-style="italic"
    font-stretch="normal"
    units-per-em="1000"
    panose-1="0 0 5 0 0 0 0 0 0 0"
    ascent="800"
    descent="-200"
    x-height="511"
    cap-height="700"
    bbox="-205 -245 1182 980"
    underline-thickness="50"
    underline-position="-100"
    stemh="75"
    stemv="84"
    unicode-range="U+0020-2265"
  />
<missing-glyph horiz-adv-x="940" 
 />
    <glyph glyph-name=".notdef" horiz-adv-x="940" 
 />
    <glyph glyph-name="A" unicode="A" horiz-adv-x="682" 
d="M536 700l118 -690l-2 -10h-93l-28 183h-300l-101 -183h-100l2 10l396 690h108zM275 261h245l-52 342h-4z" />
    <glyph glyph-name="Aacute" unicode="&#xc1;" horiz-adv-x="682" 
d="M549 918h115l-2 -10l-143 -136h-75l2 10zM428 700h108l118 -690l-2 -10h-93l-28 183h-300l-101 -183h-100l2 10zM275 261h245l-52 342h-4z" />
    <glyph glyph-name="Abreve" unicode="&#x102;" horiz-adv-x="682" 
d="M502 774c-94 0 -139 60 -122 142h73c-6 -37 9 -65 60 -65c56 0 78 29 86 65h73c-7 -82 -57 -142 -170 -142zM428 700h108l118 -690l-2 -10h-93l-28 183h-300l-101 -183h-100l2 10zM275 261h245l-52 342h-4z" />
    <glyph glyph-name="uni01CD" unicode="&#x1cd;" horiz-adv-x="682" 
d="M596 916h88l-2 -10l-129 -132h-111l-75 132l2 10h79l56 -80h4zM428 700h108l118 -690l-2 -10h-93l-28 183h-300l-101 -183h-100l2 10zM275 261h245l-52 342h-4z" />
    <glyph glyph-name="Acircumflex" unicode="&#xc2;" horiz-adv-x="682" 
d="M585 916l75 -132l-2 -10h-80l-56 80h-4l-88 -80h-87l2 10l129 132h111zM428 700h108l118 -690l-2 -10h-93l-28 183h-300l-101 -183h-100l2 10zM275 261h245l-52 342h-4z" />
    <glyph glyph-name="Adieresis" unicode="&#xc4;" horiz-adv-x="682" 
d="M418 798c-33 0 -48 18 -48 45c0 41 24 72 72 72c32 0 48 -18 48 -45c0 -41 -26 -72 -72 -72zM593 798c-33 0 -48 18 -48 45c0 41 24 72 72 72c32 0 48 -18 48 -45c0 -41 -26 -72 -72 -72zM428 700h108l118 -690l-2 -10h-93l-28 183h-300l-101 -183h-100l2 10zM275 261
h245l-52 342h-4z" />
    <glyph glyph-name="Agrave" unicode="&#xc0;" horiz-adv-x="682" 
d="M556 772h-75l-89 136l2 10h115l49 -136zM536 700l118 -690l-2 -10h-93l-28 183h-300l-101 -183h-100l2 10l396 690h108zM275 261h245l-52 342h-4z" />
    <glyph glyph-name="Amacron" unicode="&#x100;" horiz-adv-x="682" 
d="M659 887l-16 -81h-273l16 81h273zM428 700h108l118 -690l-2 -10h-93l-28 183h-300l-101 -183h-100l2 10zM275 261h245l-52 342h-4z" />
    <glyph glyph-name="Aogonek" unicode="&#x104;" horiz-adv-x="682" 
d="M652 0c-46 -20 -106 -53 -106 -106c0 -27 21 -38 45 -38c16 0 24 2 33 4l-14 -68c-14 -5 -27 -8 -52 -8c-55 0 -97 31 -97 84c0 67 49 107 98 133l-28 182h-300l-101 -183h-100l2 10l396 690h108l118 -690zM275 261h245l-52 342h-4z" />
    <glyph glyph-name="Aring" unicode="&#xc5;" horiz-adv-x="682" 
d="M494 761c-55 0 -91 42 -91 94c0 74 59 125 136 125c57 0 92 -41 92 -94c0 -74 -56 -125 -137 -125zM526 919c-38 0 -59 -27 -59 -59c0 -22 14 -38 39 -38c37 0 60 25 60 57c0 23 -15 40 -40 40zM536 700l118 -690l-2 -10h-93l-28 183h-300l-101 -183h-100l2 10l396 690
h108zM275 261h245l-52 342h-4z" />
    <glyph glyph-name="Atilde" unicode="&#xc3;" horiz-adv-x="682" 
d="M608 901h59l-3 -15c-13 -66 -62 -98 -117 -98c-26 0 -45 10 -62 22l-12 9c-11 8 -22 14 -38 14c-21 0 -40 -16 -46 -43h-60l3 15c13 65 63 98 118 98c27 0 46 -10 63 -22l12 -9c11 -8 24 -14 37 -14c22 0 41 18 46 43zM428 700h108l118 -690l-2 -10h-93l-28 183h-300
l-101 -183h-100l2 10zM275 261h245l-52 342h-4z" />
    <glyph glyph-name="AE" unicode="&#xc6;" horiz-adv-x="910" 
d="M30 0l2 10l397 690h563l-16 -80h-426l38 -219h313l-17 -80h-283l41 -242h224l-16 -79h-291l-29 183h-306l-103 -183h-91zM268 261h250l-53 342h-4z" />
    <glyph glyph-name="B" unicode="B" horiz-adv-x="666" 
d="M100 0l142 700h281c104 0 172 -55 172 -148s-51 -148 -122 -177l-1 -4c42 -19 85 -59 85 -134c0 -143 -109 -237 -269 -237h-288zM267 400h174c95 0 163 46 163 138c0 53 -34 84 -106 84h-185zM202 79h192c95 0 171 53 171 149c0 64 -44 96 -121 96h-192z" />
    <glyph glyph-name="C" unicode="C" horiz-adv-x="709" 
d="M367 -9c-158 0 -248 109 -248 270c0 249 149 448 388 448c169 0 252 -95 237 -243h-90c9 97 -39 161 -157 161c-209 0 -286 -203 -286 -352c0 -113 45 -203 173 -203c116 0 192 59 222 155h89c-42 -146 -148 -236 -328 -236z" />
    <glyph glyph-name="Cacute" unicode="&#x106;" horiz-adv-x="709" 
d="M473 772l2 10l103 136h115l-2 -10l-143 -136h-75zM367 -9c-158 0 -248 109 -248 270c0 249 149 448 388 448c169 0 252 -95 237 -243h-90c9 97 -39 161 -157 161c-209 0 -286 -203 -286 -352c0 -113 45 -203 173 -203c116 0 192 59 222 155h89
c-42 -146 -148 -236 -328 -236z" />
    <glyph glyph-name="Ccaron" unicode="&#x10c;" horiz-adv-x="709" 
d="M471 774l-75 132l2 10h79l56 -80h4l88 80h88l-2 -10l-129 -132h-111zM367 -9c-158 0 -248 109 -248 270c0 249 149 448 388 448c169 0 252 -95 237 -243h-90c9 97 -39 161 -157 161c-209 0 -286 -203 -286 -352c0 -113 45 -203 173 -203c116 0 192 59 222 155h89
c-42 -146 -148 -236 -328 -236z" />
    <glyph glyph-name="Ccedilla" unicode="&#xc7;" horiz-adv-x="709" 
d="M744 466h-90c9 97 -39 161 -157 161c-209 0 -286 -203 -286 -352c0 -113 45 -203 173 -203c116 0 192 59 222 155h89c-40 -138 -137 -226 -300 -235l-30 -38c49 0 82 -27 82 -68c0 -51 -42 -104 -137 -104c-60 0 -107 29 -95 91h60c-4 -21 11 -34 45 -34
c27 0 55 12 55 38c0 15 -14 27 -39 27h-32l-18 31l41 58c-133 17 -208 121 -208 268c0 249 149 448 388 448c169 0 252 -95 237 -243z" />
    <glyph glyph-name="Ccircumflex" unicode="&#x108;" horiz-adv-x="709" 
d="M372 774l2 10l129 132h111l75 -132l-2 -10h-80l-56 80h-4l-88 -80h-87zM367 -9c-158 0 -248 109 -248 270c0 249 149 448 388 448c169 0 252 -95 237 -243h-90c9 97 -39 161 -157 161c-209 0 -286 -203 -286 -352c0 -113 45 -203 173 -203c116 0 192 59 222 155h89
c-42 -146 -148 -236 -328 -236z" />
    <glyph glyph-name="Cdotaccent" unicode="&#x10a;" horiz-adv-x="709" 
d="M531 798c-33 0 -48 18 -48 45c0 41 24 72 72 72c32 0 48 -18 48 -45c0 -41 -26 -72 -72 -72zM367 -9c-158 0 -248 109 -248 270c0 249 149 448 388 448c169 0 252 -95 237 -243h-90c9 97 -39 161 -157 161c-209 0 -286 -203 -286 -352c0 -113 45 -203 173 -203
c116 0 192 59 222 155h89c-42 -146 -148 -236 -328 -236z" />
    <glyph glyph-name="D" unicode="D" horiz-adv-x="704" 
d="M100 0l142 700h222c166 0 262 -112 262 -274c0 -226 -139 -426 -394 -426h-232zM203 79h136c197 0 295 173 295 336c0 113 -54 205 -185 205h-136z" />
    <glyph glyph-name="Eth" unicode="&#xd0;" horiz-adv-x="755" 
d="M515 700c166 0 262 -112 262 -274c0 -226 -139 -426 -394 -426h-232l65 321h-71l17 81h71l60 298h222zM390 79c197 0 295 173 295 336c0 113 -54 205 -185 205h-136l-44 -218h197l-17 -81h-197l-49 -242h136z" />
    <glyph glyph-name="Dcaron" unicode="&#x10e;" horiz-adv-x="704" 
d="M413 774l-75 132l2 10h79l56 -80h4l88 80h88l-2 -10l-129 -132h-111zM100 0l142 700h222c166 0 262 -112 262 -274c0 -226 -139 -426 -394 -426h-232zM203 79h136c197 0 295 173 295 336c0 113 -54 205 -185 205h-136z" />
    <glyph glyph-name="Dcroat" unicode="&#x110;" horiz-adv-x="755" 
d="M515 700c166 0 262 -112 262 -274c0 -226 -139 -426 -394 -426h-232l65 321h-71l17 81h71l60 298h222zM390 79c197 0 295 173 295 336c0 113 -54 205 -185 205h-136l-44 -218h197l-17 -81h-197l-49 -242h136z" />
    <glyph glyph-name="E" unicode="E" horiz-adv-x="610" 
d="M100 0l142 700h450l-16 -80h-363l-44 -219h332l-17 -80h-332l-49 -242h363l-16 -79h-450z" />
    <glyph glyph-name="Eacute" unicode="&#xc9;" horiz-adv-x="610" 
d="M435 772l2 10l103 136h115l-2 -10l-143 -136h-75zM100 0l142 700h450l-16 -80h-363l-44 -219h332l-17 -80h-332l-49 -242h363l-16 -79h-450z" />
    <glyph glyph-name="Ebreve" unicode="&#x114;" horiz-adv-x="610" 
d="M493 774c-94 0 -139 60 -122 142h73c-6 -37 9 -65 60 -65c56 0 78 29 86 65h73c-7 -82 -57 -142 -170 -142zM100 0l142 700h450l-16 -80h-363l-44 -219h332l-17 -80h-332l-49 -242h363l-16 -79h-450z" />
    <glyph glyph-name="Ecaron" unicode="&#x11a;" horiz-adv-x="610" 
d="M433 774l-75 132l2 10h79l56 -80h4l88 80h88l-2 -10l-129 -132h-111zM100 0l142 700h450l-16 -80h-363l-44 -219h332l-17 -80h-332l-49 -242h363l-16 -79h-450z" />
    <glyph glyph-name="Ecircumflex" unicode="&#xca;" horiz-adv-x="610" 
d="M334 774l2 10l129 132h111l75 -132l-2 -10h-80l-56 80h-4l-88 -80h-87zM100 0l142 700h450l-16 -80h-363l-44 -219h332l-17 -80h-332l-49 -242h363l-16 -79h-450z" />
    <glyph glyph-name="Edieresis" unicode="&#xcb;" horiz-adv-x="610" 
d="M409 798c-33 0 -48 18 -48 45c0 41 24 72 72 72c32 0 48 -18 48 -45c0 -41 -26 -72 -72 -72zM584 798c-33 0 -48 18 -48 45c0 41 24 72 72 72c32 0 48 -18 48 -45c0 -41 -26 -72 -72 -72zM100 0l142 700h450l-16 -80h-363l-44 -219h332l-17 -80h-332l-49 -242h363
l-16 -79h-450z" />
    <glyph glyph-name="Edotaccent" unicode="&#x116;" horiz-adv-x="610" 
d="M493 798c-33 0 -48 18 -48 45c0 41 24 72 72 72c32 0 48 -18 48 -45c0 -41 -26 -72 -72 -72zM100 0l142 700h450l-16 -80h-363l-44 -219h332l-17 -80h-332l-49 -242h363l-16 -79h-450z" />
    <glyph glyph-name="Egrave" unicode="&#xc8;" horiz-adv-x="610" 
d="M472 772l-89 136l2 10h115l49 -136l-2 -10h-75zM100 0l142 700h450l-16 -80h-363l-44 -219h332l-17 -80h-332l-49 -242h363l-16 -79h-450z" />
    <glyph glyph-name="Emacron" unicode="&#x112;" horiz-adv-x="610" 
d="M361 806l16 81h273l-16 -81h-273zM100 0l142 700h450l-16 -80h-363l-44 -219h332l-17 -80h-332l-49 -242h363l-16 -79h-450z" />
    <glyph glyph-name="Eogonek" unicode="&#x118;" horiz-adv-x="610" 
d="M676 620h-363l-44 -219h332l-17 -80h-332l-49 -242h363l-16 -79h-2c-46 -20 -106 -53 -106 -106c0 -27 21 -38 45 -38c16 0 24 2 33 4l-14 -68c-14 -5 -27 -8 -52 -8c-55 0 -97 31 -97 84c0 66 48 107 97 132h-354l142 700h450z" />
    <glyph glyph-name="uni1EBC" unicode="&#x1ebc;" horiz-adv-x="610" 
d="M538 788c-26 0 -45 10 -62 22l-12 9c-11 8 -22 14 -38 14c-21 0 -40 -16 -46 -43h-60l3 15c13 65 63 98 118 98c27 0 46 -10 63 -22l12 -9c11 -8 24 -14 37 -14c22 0 41 18 46 43h59l-3 -15c-13 -66 -62 -98 -117 -98zM100 0l142 700h450l-16 -80h-363l-44 -219h332
l-17 -80h-332l-49 -242h363l-16 -79h-450z" />
    <glyph glyph-name="F" unicode="F" horiz-adv-x="599" 
d="M100 0l142 700h439l-16 -80h-352l-48 -235h318l-16 -80h-318l-62 -305h-87z" />
    <glyph glyph-name="G" unicode="G" horiz-adv-x="721" 
d="M368 -9c-165 0 -249 108 -249 268c0 248 138 450 384 450c170 0 258 -95 243 -233h-90c9 87 -43 151 -162 151c-205 0 -283 -210 -283 -355c0 -106 43 -200 170 -200c146 0 226 96 251 217h-187l16 79h275l-12 -59c-39 -193 -153 -318 -356 -318z" />
    <glyph glyph-name="Gbreve" unicode="&#x11e;" horiz-adv-x="721" 
d="M529 774c-94 0 -139 60 -122 142h73c-6 -37 9 -65 60 -65c56 0 78 29 86 65h73c-7 -82 -57 -142 -170 -142zM368 -9c-165 0 -249 108 -249 268c0 248 138 450 384 450c170 0 258 -95 243 -233h-90c9 87 -43 151 -162 151c-205 0 -283 -210 -283 -355
c0 -106 43 -200 170 -200c146 0 226 96 251 217h-187l16 79h275l-12 -59c-39 -193 -153 -318 -356 -318z" />
    <glyph glyph-name="Gcaron" unicode="&#x1e6;" horiz-adv-x="721" 
d="M469 774l-75 132l2 10h79l56 -80h4l88 80h88l-2 -10l-129 -132h-111zM368 -9c-165 0 -249 108 -249 268c0 248 138 450 384 450c170 0 258 -95 243 -233h-90c9 87 -43 151 -162 151c-205 0 -283 -210 -283 -355c0 -106 43 -200 170 -200c146 0 226 96 251 217h-187l16 79
h275l-12 -59c-39 -193 -153 -318 -356 -318z" />
    <glyph glyph-name="Gcircumflex" unicode="&#x11c;" horiz-adv-x="721" 
d="M370 774l2 10l129 132h111l75 -132l-2 -10h-80l-56 80h-4l-88 -80h-87zM368 -9c-165 0 -249 108 -249 268c0 248 138 450 384 450c170 0 258 -95 243 -233h-90c9 87 -43 151 -162 151c-205 0 -283 -210 -283 -355c0 -106 43 -200 170 -200c146 0 226 96 251 217h-187
l16 79h275l-12 -59c-39 -193 -153 -318 -356 -318z" />
    <glyph glyph-name="Gcommaaccent" unicode="&#x122;" horiz-adv-x="721" 
d="M368 -9c-165 0 -249 108 -249 268c0 248 138 450 384 450c170 0 258 -95 243 -233h-90c9 87 -43 151 -162 151c-205 0 -283 -210 -283 -355c0 -106 43 -200 170 -200c146 0 226 96 251 217h-187l16 79h275l-12 -59c-39 -193 -153 -318 -356 -318zM269 -211l2 10l49 150
h94l-2 -10l-80 -150h-63z" />
    <glyph glyph-name="Gdotaccent" unicode="&#x120;" horiz-adv-x="721" 
d="M529 798c-33 0 -48 18 -48 45c0 41 24 72 72 72c32 0 48 -18 48 -45c0 -41 -26 -72 -72 -72zM368 -9c-165 0 -249 108 -249 268c0 248 138 450 384 450c170 0 258 -95 243 -233h-90c9 87 -43 151 -162 151c-205 0 -283 -210 -283 -355c0 -106 43 -200 170 -200
c146 0 226 96 251 217h-187l16 79h275l-12 -59c-39 -193 -153 -318 -356 -318z" />
    <glyph glyph-name="H" unicode="H" horiz-adv-x="735" 
d="M690 700h87l-142 -700h-87l65 321h-361l-65 -321h-87l142 700h87l-60 -298h361z" />
    <glyph glyph-name="Hbar" unicode="&#x126;" horiz-adv-x="735" 
d="M816 602l-14 -71h-59l-108 -531h-87l65 321h-361l-65 -321h-87l108 531h-61l14 71h61l20 98h87l-20 -98h361l20 98h87l-20 -98h59zM630 402l26 129h-361l-26 -129h361z" />
    <glyph glyph-name="Hcircumflex" unicode="&#x124;" horiz-adv-x="735" 
d="M539 854l-88 -80h-87l2 10l129 132h111l75 -132l-2 -10h-80l-56 80h-4zM690 700h87l-142 -700h-87l65 321h-361l-65 -321h-87l142 700h87l-60 -298h361z" />
    <glyph glyph-name="I" unicode="I" horiz-adv-x="288" 
d="M100 0l142 700h88l-142 -700h-88z" />
    <glyph glyph-name="IJ" unicode="&#x132;" horiz-adv-x="820" 
d="M100 0l142 700h88l-142 -700h-88zM525 -9c-126 0 -192 85 -166 209h86c-16 -75 15 -126 95 -126c79 0 127 51 143 129l101 497h88l-101 -497c-26 -129 -108 -212 -246 -212z" />
    <glyph glyph-name="Iacute" unicode="&#xcd;" horiz-adv-x="288" 
d="M248 772l2 10l103 136h115l-2 -10l-143 -136h-75zM100 0l142 700h88l-142 -700h-88z" />
    <glyph glyph-name="Ibreve" unicode="&#x12c;" horiz-adv-x="288" 
d="M306 774c-94 0 -139 60 -122 142h73c-6 -37 9 -65 60 -65c56 0 78 29 86 65h73c-7 -82 -57 -142 -170 -142zM100 0l142 700h88l-142 -700h-88z" />
    <glyph glyph-name="uni01CF" unicode="&#x1cf;" horiz-adv-x="288" 
d="M246 774l-75 132l2 10h79l56 -80h4l88 80h88l-2 -10l-129 -132h-111zM100 0l142 700h88l-142 -700h-88z" />
    <glyph glyph-name="Icircumflex" unicode="&#xce;" horiz-adv-x="288" 
d="M147 774l2 10l129 132h111l75 -132l-2 -10h-80l-56 80h-4l-88 -80h-87zM100 0l142 700h88l-142 -700h-88z" />
    <glyph glyph-name="Idieresis" unicode="&#xcf;" horiz-adv-x="288" 
d="M222 798c-33 0 -48 18 -48 45c0 41 24 72 72 72c32 0 48 -18 48 -45c0 -41 -26 -72 -72 -72zM397 798c-33 0 -48 18 -48 45c0 41 24 72 72 72c32 0 48 -18 48 -45c0 -41 -26 -72 -72 -72zM100 0l142 700h88l-142 -700h-88z" />
    <glyph glyph-name="Idotaccent" unicode="&#x130;" horiz-adv-x="288" 
d="M306 798c-33 0 -48 18 -48 45c0 41 24 72 72 72c32 0 48 -18 48 -45c0 -41 -26 -72 -72 -72zM100 0l142 700h88l-142 -700h-88z" />
    <glyph glyph-name="Igrave" unicode="&#xcc;" horiz-adv-x="288" 
d="M285 772l-89 136l2 10h115l49 -136l-2 -10h-75zM100 0l142 700h88l-142 -700h-88z" />
    <glyph glyph-name="Imacron" unicode="&#x12a;" horiz-adv-x="288" 
d="M174 806l16 81h273l-16 -81h-273zM100 0l142 700h88l-142 -700h-88z" />
    <glyph glyph-name="Iogonek" unicode="&#x12e;" horiz-adv-x="288" 
d="M188 0c-46 -20 -106 -53 -106 -106c0 -27 21 -38 45 -38c16 0 24 2 33 4l-14 -68c-14 -5 -27 -8 -52 -8c-55 0 -97 31 -97 84c0 69 53 111 104 136l141 696h88z" />
    <glyph glyph-name="Itilde" unicode="&#x128;" horiz-adv-x="288" 
d="M351 788c-26 0 -45 10 -62 22l-12 9c-11 8 -22 14 -38 14c-21 0 -40 -16 -46 -43h-60l3 15c13 65 63 98 118 98c27 0 46 -10 63 -22l12 -9c11 -8 24 -14 37 -14c22 0 41 18 46 43h59l-3 -15c-13 -66 -62 -98 -117 -98zM100 0l142 700h88l-142 -700h-88z" />
    <glyph glyph-name="J" unicode="J" horiz-adv-x="532" 
d="M237 -9c-126 0 -192 85 -166 209h86c-16 -75 15 -126 95 -126c79 0 127 51 143 129l101 497h88l-101 -497c-26 -129 -108 -212 -246 -212z" />
    <glyph glyph-name="Jcircumflex" unicode="&#x134;" horiz-adv-x="532" 
d="M397 774l2 10l129 132h111l75 -132l-2 -10h-80l-56 80h-4l-88 -80h-87zM237 -9c-126 0 -192 85 -166 209h86c-16 -75 15 -126 95 -126c79 0 127 51 143 129l101 497h88l-101 -497c-26 -129 -108 -212 -246 -212z" />
    <glyph glyph-name="K" unicode="K" horiz-adv-x="631" 
d="M100 0l142 700h87l-142 -700h-87zM523 0l-262 364l2 10l384 326h106l-2 -10l-388 -329l260 -351l-2 -10h-98z" />
    <glyph glyph-name="Kcommaaccent" unicode="&#x136;" horiz-adv-x="631" 
d="M100 0l142 700h87l-142 -700h-87zM523 0l-262 364l2 10l384 326h106l-2 -10l-388 -329l260 -351l-2 -10h-98zM249 -211l2 10l49 150h94l-2 -10l-80 -150h-63z" />
    <glyph glyph-name="L" unicode="L" horiz-adv-x="550" 
d="M100 0l142 700h87l-126 -620h338l-16 -80h-425z" />
    <glyph glyph-name="Lacute" unicode="&#x139;" horiz-adv-x="550" 
d="M247 772l2 10l103 136h115l-2 -10l-143 -136h-75zM100 0l142 700h87l-126 -620h338l-16 -80h-425z" />
    <glyph glyph-name="Lcaron" unicode="&#x13d;" horiz-adv-x="550" 
d="M100 0l142 700h87l-126 -620h338l-16 -80h-425zM428 530l34 170h94l-2 -10l-67 -160h-59z" />
    <glyph glyph-name="Lcommaaccent" unicode="&#x13b;" horiz-adv-x="550" 
d="M100 0l142 700h87l-126 -620h338l-16 -80h-425zM206 -211l2 10l49 150h94l-2 -10l-80 -150h-63z" />
    <glyph glyph-name="Ldot" unicode="&#x13f;" horiz-adv-x="600" 
d="M100 0l142 700h87l-126 -620h338l-16 -80h-425zM440 310c-33 0 -48 19 -48 47c0 41 26 74 73 74c32 0 48 -20 48 -47c0 -41 -28 -74 -73 -74z" />
    <glyph glyph-name="Lslash" unicode="&#x141;" horiz-adv-x="620" 
d="M273 80h338l-16 -80h-425l54 267l-65 -24h-10l16 77l76 28l71 352h87l-65 -318l195 72h10l-16 -79l-205 -74z" />
    <glyph glyph-name="M" unicode="M" horiz-adv-x="880" 
d="M100 0l142 700h98l150 -427h4l322 427h106l-142 -700h-83l114 561h-4l-338 -441h-10l-157 444h-4l-115 -564h-83z" />
    <glyph glyph-name="N" unicode="N" horiz-adv-x="743" 
d="M100 0l142 700h85l255 -557h4l113 557h86l-142 -700h-86l-255 554h-4l-113 -554h-85z" />
    <glyph glyph-name="Nacute" unicode="&#x143;" horiz-adv-x="743" 
d="M487 772l2 10l103 136h115l-2 -10l-143 -136h-75zM100 0l142 700h85l255 -557h4l113 557h86l-142 -700h-86l-255 554h-4l-113 -554h-85z" />
    <glyph glyph-name="Ncaron" unicode="&#x147;" horiz-adv-x="743" 
d="M485 774l-75 132l2 10h79l56 -80h4l88 80h88l-2 -10l-129 -132h-111zM100 0l142 700h85l255 -557h4l113 557h86l-142 -700h-86l-255 554h-4l-113 -554h-85z" />
    <glyph glyph-name="Ncommaaccent" unicode="&#x145;" horiz-adv-x="743" 
d="M100 0l142 700h85l255 -557h4l113 557h86l-142 -700h-86l-255 554h-4l-113 -554h-85zM264 -211l2 10l49 150h94l-2 -10l-80 -150h-63z" />
    <glyph glyph-name="Eng" unicode="&#x14a;" horiz-adv-x="743" 
d="M785 700l-47 -230h1l-101 -497c-26 -129 -123 -212 -251 -212l17 83c81 0 132 51 148 129l5 27h-10l-245 554h-4l-113 -554h-85l142 700h95l245 -557h4l113 557h86z" />
    <glyph glyph-name="Ntilde" unicode="&#xd1;" horiz-adv-x="743" 
d="M590 788c-26 0 -45 10 -62 22l-12 9c-11 8 -22 14 -38 14c-21 0 -40 -16 -46 -43h-60l3 15c13 65 63 98 118 98c27 0 46 -10 63 -22l12 -9c11 -8 24 -14 37 -14c22 0 41 18 46 43h59l-3 -15c-13 -66 -62 -98 -117 -98zM100 0l142 700h85l255 -557h4l113 557h86l-142 -700
h-86l-255 554h-4l-113 -554h-85z" />
    <glyph glyph-name="O" unicode="O" horiz-adv-x="740" 
d="M375 -9c-175 0 -256 118 -256 270c0 225 120 448 388 448c171 0 256 -115 256 -270c0 -226 -122 -448 -388 -448zM385 73c215 0 286 206 286 352c0 107 -44 202 -173 202c-219 0 -287 -209 -287 -352c0 -107 45 -202 174 -202z" />
    <glyph glyph-name="Oacute" unicode="&#xd3;" horiz-adv-x="740" 
d="M479 772l2 10l103 136h115l-2 -10l-143 -136h-75zM375 -9c-175 0 -256 118 -256 270c0 225 120 448 388 448c171 0 256 -115 256 -270c0 -226 -122 -448 -388 -448zM385 73c215 0 286 206 286 352c0 107 -44 202 -173 202c-219 0 -287 -209 -287 -352
c0 -107 45 -202 174 -202z" />
    <glyph glyph-name="Obreve" unicode="&#x14e;" horiz-adv-x="740" 
d="M537 774c-94 0 -139 60 -122 142h73c-6 -37 9 -65 60 -65c56 0 78 29 86 65h73c-7 -82 -57 -142 -170 -142zM375 -9c-175 0 -256 118 -256 270c0 225 120 448 388 448c171 0 256 -115 256 -270c0 -226 -122 -448 -388 -448zM385 73c215 0 286 206 286 352
c0 107 -44 202 -173 202c-219 0 -287 -209 -287 -352c0 -107 45 -202 174 -202z" />
    <glyph glyph-name="uni01D1" unicode="&#x1d1;" horiz-adv-x="740" 
d="M477 774l-75 132l2 10h79l56 -80h4l88 80h88l-2 -10l-129 -132h-111zM375 -9c-175 0 -256 118 -256 270c0 225 120 448 388 448c171 0 256 -115 256 -270c0 -226 -122 -448 -388 -448zM385 73c215 0 286 206 286 352c0 107 -44 202 -173 202c-219 0 -287 -209 -287 -352
c0 -107 45 -202 174 -202z" />
    <glyph glyph-name="Ocircumflex" unicode="&#xd4;" horiz-adv-x="740" 
d="M378 774l2 10l129 132h111l75 -132l-2 -10h-80l-56 80h-4l-88 -80h-87zM375 -9c-175 0 -256 118 -256 270c0 225 120 448 388 448c171 0 256 -115 256 -270c0 -226 -122 -448 -388 -448zM385 73c215 0 286 206 286 352c0 107 -44 202 -173 202
c-219 0 -287 -209 -287 -352c0 -107 45 -202 174 -202z" />
    <glyph glyph-name="Odieresis" unicode="&#xd6;" horiz-adv-x="740" 
d="M453 798c-33 0 -48 18 -48 45c0 41 24 72 72 72c32 0 48 -18 48 -45c0 -41 -26 -72 -72 -72zM628 798c-33 0 -48 18 -48 45c0 41 24 72 72 72c32 0 48 -18 48 -45c0 -41 -26 -72 -72 -72zM375 -9c-175 0 -256 118 -256 270c0 225 120 448 388 448
c171 0 256 -115 256 -270c0 -226 -122 -448 -388 -448zM385 73c215 0 286 206 286 352c0 107 -44 202 -173 202c-219 0 -287 -209 -287 -352c0 -107 45 -202 174 -202z" />
    <glyph glyph-name="Ograve" unicode="&#xd2;" horiz-adv-x="740" 
d="M516 772l-89 136l2 10h115l49 -136l-2 -10h-75zM375 -9c-175 0 -256 118 -256 270c0 225 120 448 388 448c171 0 256 -115 256 -270c0 -226 -122 -448 -388 -448zM385 73c215 0 286 206 286 352c0 107 -44 202 -173 202c-219 0 -287 -209 -287 -352
c0 -107 45 -202 174 -202z" />
    <glyph glyph-name="Ohungarumlaut" unicode="&#x150;" horiz-adv-x="740" 
d="M419 772l2 10l76 136h107l-2 -10l-120 -136h-63zM557 772l2 10l81 136h107l-2 -10l-125 -136h-63zM375 -9c-175 0 -256 118 -256 270c0 225 120 448 388 448c171 0 256 -115 256 -270c0 -226 -122 -448 -388 -448zM385 73c215 0 286 206 286 352c0 107 -44 202 -173 202
c-219 0 -287 -209 -287 -352c0 -107 45 -202 174 -202z" />
    <glyph glyph-name="Omacron" unicode="&#x14c;" horiz-adv-x="740" 
d="M405 806l16 81h273l-16 -81h-273zM375 -9c-175 0 -256 118 -256 270c0 225 120 448 388 448c171 0 256 -115 256 -270c0 -226 -122 -448 -388 -448zM385 73c215 0 286 206 286 352c0 107 -44 202 -173 202c-219 0 -287 -209 -287 -352c0 -107 45 -202 174 -202z" />
    <glyph glyph-name="Oslash" unicode="&#xd8;" horiz-adv-x="740" 
d="M842 738l-2 -10l-119 -126c28 -44 42 -100 42 -163c0 -226 -122 -448 -388 -448c-75 0 -133 22 -175 59l-83 -88h-77l2 10l118 126c-28 45 -41 101 -41 163c0 225 120 448 388 448c74 0 132 -22 174 -58l82 87h79zM211 275c0 -37 5 -73 18 -104l389 413
c-27 27 -66 43 -120 43c-219 0 -287 -209 -287 -352zM671 425c0 38 -5 74 -18 105l-389 -413c27 -27 67 -44 121 -44c215 0 286 206 286 352z" />
    <glyph glyph-name="Otilde" unicode="&#xd5;" horiz-adv-x="740" 
d="M582 788c-26 0 -45 10 -62 22l-12 9c-11 8 -22 14 -38 14c-21 0 -40 -16 -46 -43h-60l3 15c13 65 63 98 118 98c27 0 46 -10 63 -22l12 -9c11 -8 24 -14 37 -14c22 0 41 18 46 43h59l-3 -15c-13 -66 -62 -98 -117 -98zM375 -9c-175 0 -256 118 -256 270
c0 225 120 448 388 448c171 0 256 -115 256 -270c0 -226 -122 -448 -388 -448zM385 73c215 0 286 206 286 352c0 107 -44 202 -173 202c-219 0 -287 -209 -287 -352c0 -107 45 -202 174 -202z" />
    <glyph glyph-name="OE" unicode="&#x152;" horiz-adv-x="1100" 
d="M1166 620h-363l-44 -219h332l-17 -80h-328c-4 -21 -10 -41 -16 -60l-37 -182h363l-16 -79h-450l14 70c-60 -49 -138 -79 -236 -79c-175 0 -249 118 -249 270c0 225 127 448 395 448c97 0 162 -37 200 -95l18 86h450zM385 73c143 0 222 91 259 195l26 126c1 11 1 21 1 31
c0 107 -44 202 -173 202c-219 0 -287 -209 -287 -352c0 -107 45 -202 174 -202z" />
    <glyph glyph-name="P" unicode="P" horiz-adv-x="649" 
d="M100 0l142 700h248c123 0 202 -73 202 -178c0 -153 -109 -268 -282 -268h-171l-52 -254h-87zM255 334h160c116 0 185 68 185 175c0 70 -46 112 -127 112h-160z" />
    <glyph glyph-name="Thorn" unicode="&#xde;" horiz-adv-x="600" 
d="M100 0l142 700h88l-20 -100h170c123 0 192 -73 192 -178c0 -153 -119 -268 -283 -268h-170l-31 -154h-88zM236 234h159c116 0 185 68 185 175c0 70 -46 112 -127 112h-159z" />
    <glyph glyph-name="Q" unicode="Q" horiz-adv-x="740" 
d="M763 439c0 -150 -54 -298 -167 -380l64 -122l-2 -10h-92l-47 89c-42 -16 -90 -25 -144 -25c-175 0 -256 118 -256 270c0 225 120 448 388 448c171 0 256 -115 256 -270zM385 73c36 0 68 6 96 16l-63 119l2 10h92l45 -85c83 72 114 195 114 292c0 107 -44 202 -173 202
c-219 0 -287 -209 -287 -352c0 -107 45 -202 174 -202z" />
    <glyph glyph-name="R" unicode="R" horiz-adv-x="670" 
d="M704 530c0 -129 -80 -221 -197 -246l131 -274l-2 -10h-90l-129 277h-174l-56 -277h-87l142 700h277c123 0 185 -73 185 -170zM313 620l-53 -263h175c106 0 176 64 176 161c0 64 -38 102 -113 102h-185z" />
    <glyph glyph-name="Racute" unicode="&#x154;" horiz-adv-x="670" 
d="M666 908l-143 -136h-75l2 10l103 136h115zM704 530c0 -129 -80 -221 -197 -246l131 -274l-2 -10h-90l-129 277h-174l-56 -277h-87l142 700h277c123 0 185 -73 185 -170zM313 620l-53 -263h175c106 0 176 64 176 161c0 64 -38 102 -113 102h-185z" />
    <glyph glyph-name="Rcaron" unicode="&#x158;" horiz-adv-x="670" 
d="M557 774h-111l-75 132l2 10h79l56 -80h4l88 80h88l-2 -10zM704 530c0 -129 -80 -221 -197 -246l131 -274l-2 -10h-90l-129 277h-174l-56 -277h-87l142 700h277c123 0 185 -73 185 -170zM313 620l-53 -263h175c106 0 176 64 176 161c0 64 -38 102 -113 102h-185z" />
    <glyph glyph-name="Rcommaaccent" unicode="&#x156;" horiz-adv-x="670" 
d="M704 530c0 -129 -80 -221 -197 -246l131 -274l-2 -10h-90l-129 277h-174l-56 -277h-87l142 700h277c123 0 185 -73 185 -170zM313 620l-53 -263h175c106 0 176 64 176 161c0 64 -38 102 -113 102h-185zM250 -201l49 150h94l-2 -10l-80 -150h-63z" />
    <glyph glyph-name="S" unicode="S" horiz-adv-x="632" 
d="M320 -9c-170 0 -250 87 -227 219h89c-13 -87 37 -140 147 -140c119 0 199 51 199 142c0 54 -40 83 -104 97l-98 22c-99 22 -153 77 -153 160c0 131 100 218 277 218c150 0 241 -84 217 -208h-89c11 76 -28 128 -136 128c-104 0 -175 -41 -175 -128c0 -46 38 -75 100 -89
l91 -20c107 -23 163 -79 163 -165c0 -136 -98 -236 -301 -236z" />
    <glyph glyph-name="Sacute" unicode="&#x15a;" horiz-adv-x="632" 
d="M421 772l2 10l103 136h115l-2 -10l-143 -136h-75zM320 -9c-170 0 -250 87 -227 219h89c-13 -87 37 -140 147 -140c119 0 199 51 199 142c0 54 -40 83 -104 97l-98 22c-99 22 -153 77 -153 160c0 131 100 218 277 218c150 0 241 -84 217 -208h-89c11 76 -28 128 -136 128
c-104 0 -175 -41 -175 -128c0 -46 38 -75 100 -89l91 -20c107 -23 163 -79 163 -165c0 -136 -98 -236 -301 -236z" />
    <glyph glyph-name="Scaron" unicode="&#x160;" horiz-adv-x="632" 
d="M419 774l-75 132l2 10h79l56 -80h4l88 80h88l-2 -10l-129 -132h-111zM320 -9c-170 0 -250 87 -227 219h89c-13 -87 37 -140 147 -140c119 0 199 51 199 142c0 54 -40 83 -104 97l-98 22c-99 22 -153 77 -153 160c0 131 100 218 277 218c150 0 241 -84 217 -208h-89
c11 76 -28 128 -136 128c-104 0 -175 -41 -175 -128c0 -46 38 -75 100 -89l91 -20c107 -23 163 -79 163 -165c0 -136 -98 -236 -301 -236z" />
    <glyph glyph-name="Scedilla" unicode="&#x15e;" horiz-adv-x="632" 
d="M667 501h-89c11 76 -28 128 -136 128c-104 0 -175 -41 -175 -128c0 -46 38 -75 100 -89l91 -20c107 -23 163 -79 163 -165c0 -131 -91 -229 -280 -236l-30 -37c49 0 82 -27 82 -68c0 -51 -42 -104 -137 -104c-60 0 -107 29 -95 91h60c-4 -21 11 -34 45 -34
c27 0 55 12 55 38c0 15 -14 27 -39 27h-32l-18 31l41 58c-137 15 -201 98 -180 217h89c-13 -87 37 -140 147 -140c119 0 199 51 199 142c0 54 -40 83 -104 97l-98 22c-99 22 -153 77 -153 160c0 131 100 218 277 218c150 0 241 -84 217 -208z" />
    <glyph glyph-name="Scircumflex" unicode="&#x15c;" horiz-adv-x="632" 
d="M320 774l2 10l129 132h111l75 -132l-2 -10h-80l-56 80h-4l-88 -80h-87zM320 -9c-170 0 -250 87 -227 219h89c-13 -87 37 -140 147 -140c119 0 199 51 199 142c0 54 -40 83 -104 97l-98 22c-99 22 -153 77 -153 160c0 131 100 218 277 218c150 0 241 -84 217 -208h-89
c11 76 -28 128 -136 128c-104 0 -175 -41 -175 -128c0 -46 38 -75 100 -89l91 -20c107 -23 163 -79 163 -165c0 -136 -98 -236 -301 -236z" />
    <glyph glyph-name="Scommaaccent" unicode="&#x218;" horiz-adv-x="632" 
d="M320 -9c-170 0 -250 87 -227 219h89c-13 -87 37 -140 147 -140c119 0 199 51 199 142c0 54 -40 83 -104 97l-98 22c-99 22 -153 77 -153 160c0 131 100 218 277 218c150 0 241 -84 217 -208h-89c11 76 -28 128 -136 128c-104 0 -175 -41 -175 -128c0 -46 38 -75 100 -89
l91 -20c107 -23 163 -79 163 -165c0 -136 -98 -236 -301 -236zM208 -211l2 10l49 150h94l-2 -10l-80 -150h-63z" />
    <glyph glyph-name="T" unicode="T" horiz-adv-x="592" 
d="M252 0l126 620h-217l16 80h522l-16 -80h-217l-126 -620h-88z" />
    <glyph glyph-name="Tbar" unicode="&#x166;" horiz-adv-x="592" 
d="M683 620h-217l-41 -200h177l-15 -75h-177l-70 -345h-88l70 345h-177l15 75h177l41 200h-217l16 80h522z" />
    <glyph glyph-name="Tcaron" unicode="&#x164;" horiz-adv-x="592" 
d="M401 774l-75 132l2 10h79l56 -80h4l88 80h88l-2 -10l-129 -132h-111zM252 0l126 620h-217l16 80h522l-16 -80h-217l-126 -620h-88z" />
    <glyph glyph-name="uni0162" unicode="&#x162;" horiz-adv-x="592" 
d="M252 0l126 620h-217l16 80h522l-16 -80h-217l-126 -620h-88zM185 -211l2 10l49 150h94l-2 -10l-80 -150h-63z" />
    <glyph glyph-name="uni021A" unicode="&#x21a;" horiz-adv-x="592" 
d="M177 700h522l-16 -80h-217l-126 -620h-15l-37 -46c49 0 82 -27 82 -68c0 -51 -42 -104 -137 -104c-60 0 -107 29 -95 91h60c-4 -21 11 -34 45 -34c27 0 55 12 55 38c0 15 -14 27 -39 27h-32l-18 31l46 65h-3l126 620h-217z" />
    <glyph glyph-name="U" unicode="U" horiz-adv-x="714" 
d="M361 -9c-161 0 -254 95 -221 256l92 453h87l-92 -451c-22 -108 22 -178 142 -178c122 0 195 70 217 178l92 451h88l-92 -453c-33 -161 -132 -256 -313 -256z" />
    <glyph glyph-name="Uacute" unicode="&#xda;" horiz-adv-x="714" 
d="M456 772l2 10l103 136h115l-2 -10l-143 -136h-75zM361 -9c-161 0 -254 95 -221 256l92 453h87l-92 -451c-22 -108 22 -178 142 -178c122 0 195 70 217 178l92 451h88l-92 -453c-33 -161 -132 -256 -313 -256z" />
    <glyph glyph-name="Ubreve" unicode="&#x16c;" horiz-adv-x="714" 
d="M514 774c-94 0 -139 60 -122 142h73c-6 -37 9 -65 60 -65c56 0 78 29 86 65h73c-7 -82 -57 -142 -170 -142zM361 -9c-161 0 -254 95 -221 256l92 453h87l-92 -451c-22 -108 22 -178 142 -178c122 0 195 70 217 178l92 451h88l-92 -453c-33 -161 -132 -256 -313 -256z" />
    <glyph glyph-name="Ucircumflex" unicode="&#xdb;" horiz-adv-x="714" 
d="M355 774l2 10l129 132h111l75 -132l-2 -10h-80l-56 80h-4l-88 -80h-87zM361 -9c-161 0 -254 95 -221 256l92 453h87l-92 -451c-22 -108 22 -178 142 -178c122 0 195 70 217 178l92 451h88l-92 -453c-33 -161 -132 -256 -313 -256z" />
    <glyph glyph-name="Udieresis" unicode="&#xdc;" horiz-adv-x="714" 
d="M430 798c-33 0 -48 18 -48 45c0 41 24 72 72 72c32 0 48 -18 48 -45c0 -41 -26 -72 -72 -72zM605 798c-33 0 -48 18 -48 45c0 41 24 72 72 72c32 0 48 -18 48 -45c0 -41 -26 -72 -72 -72zM361 -9c-161 0 -254 95 -221 256l92 453h87l-92 -451c-22 -108 22 -178 142 -178
c122 0 195 70 217 178l92 451h88l-92 -453c-33 -161 -132 -256 -313 -256z" />
    <glyph glyph-name="Ugrave" unicode="&#xd9;" horiz-adv-x="714" 
d="M493 772l-89 136l2 10h115l49 -136l-2 -10h-75zM361 -9c-161 0 -254 95 -221 256l92 453h87l-92 -451c-22 -108 22 -178 142 -178c122 0 195 70 217 178l92 451h88l-92 -453c-33 -161 -132 -256 -313 -256z" />
    <glyph glyph-name="Uhungarumlaut" unicode="&#x170;" horiz-adv-x="714" 
d="M396 772l2 10l76 136h107l-2 -10l-120 -136h-63zM534 772l2 10l81 136h107l-2 -10l-125 -136h-63zM361 -9c-161 0 -254 95 -221 256l92 453h87l-92 -451c-22 -108 22 -178 142 -178c122 0 195 70 217 178l92 451h88l-92 -453c-33 -161 -132 -256 -313 -256z" />
    <glyph glyph-name="Umacron" unicode="&#x16a;" horiz-adv-x="714" 
d="M382 806l16 81h273l-16 -81h-273zM361 -9c-161 0 -254 95 -221 256l92 453h87l-92 -451c-22 -108 22 -178 142 -178c122 0 195 70 217 178l92 451h88l-92 -453c-33 -161 -132 -256 -313 -256z" />
    <glyph glyph-name="Uogonek" unicode="&#x172;" horiz-adv-x="714" 
d="M678 700h88l-92 -453c-29 -143 -111 -234 -256 -253c-44 -20 -94 -52 -94 -100c0 -27 21 -38 45 -38c16 0 24 2 33 4l-14 -68c-14 -5 -27 -8 -52 -8c-55 0 -97 31 -97 84c0 60 40 99 84 125c-137 14 -213 106 -183 254l92 453h87l-92 -451c-22 -108 22 -178 142 -178
c122 0 195 70 217 178z" />
    <glyph glyph-name="Uring" unicode="&#x16e;" horiz-adv-x="714" 
d="M506 761c-55 0 -91 42 -91 94c0 74 59 125 136 125c57 0 92 -41 92 -94c0 -74 -56 -125 -137 -125zM518 822c37 0 60 25 60 57c0 23 -15 40 -40 40c-38 0 -59 -27 -59 -59c0 -22 14 -38 39 -38zM361 -9c-161 0 -254 95 -221 256l92 453h87l-92 -451
c-22 -108 22 -178 142 -178c122 0 195 70 217 178l92 451h88l-92 -453c-33 -161 -132 -256 -313 -256z" />
    <glyph glyph-name="Utilde" unicode="&#x168;" horiz-adv-x="714" 
d="M559 788c-26 0 -45 10 -62 22l-12 9c-11 8 -22 14 -38 14c-21 0 -40 -16 -46 -43h-60l3 15c13 65 63 98 118 98c27 0 46 -10 63 -22l12 -9c11 -8 24 -14 37 -14c22 0 41 18 46 43h59l-3 -15c-13 -66 -62 -98 -117 -98zM361 -9c-161 0 -254 95 -221 256l92 453h87
l-92 -451c-22 -108 22 -178 142 -178c122 0 195 70 217 178l92 451h88l-92 -453c-33 -161 -132 -256 -313 -256z" />
    <glyph glyph-name="V" unicode="V" horiz-adv-x="664" 
d="M287 0l-117 690l2 10h88l92 -583h4l325 583h95l-2 -10l-398 -690h-89z" />
    <glyph glyph-name="W" unicode="W" horiz-adv-x="906" 
d="M202 0l-32 690l2 10h82l20 -564h4l268 564h90l42 -564h4l247 564h89l-2 -10l-314 -690h-88l-45 559h-4l-276 -559h-87z" />
    <glyph glyph-name="Wacute" unicode="&#x1e82;" horiz-adv-x="906" 
d="M555 772l2 10l103 136h115l-2 -10l-143 -136h-75zM202 0l-32 690l2 10h82l20 -564h4l268 564h90l42 -564h4l247 564h89l-2 -10l-314 -690h-88l-45 559h-4l-276 -559h-87z" />
    <glyph glyph-name="Wcircumflex" unicode="&#x174;" horiz-adv-x="906" 
d="M454 774l2 10l129 132h111l75 -132l-2 -10h-80l-56 80h-4l-88 -80h-87zM202 0l-32 690l2 10h82l20 -564h4l268 564h90l42 -564h4l247 564h89l-2 -10l-314 -690h-88l-45 559h-4l-276 -559h-87z" />
    <glyph glyph-name="Wdieresis" unicode="&#x1e84;" horiz-adv-x="906" 
d="M529 798c-33 0 -48 18 -48 45c0 41 24 72 72 72c32 0 48 -18 48 -45c0 -41 -26 -72 -72 -72zM704 798c-33 0 -48 18 -48 45c0 41 24 72 72 72c32 0 48 -18 48 -45c0 -41 -26 -72 -72 -72zM202 0l-32 690l2 10h82l20 -564h4l268 564h90l42 -564h4l247 564h89l-2 -10
l-314 -690h-88l-45 559h-4l-276 -559h-87z" />
    <glyph glyph-name="Wgrave" unicode="&#x1e80;" horiz-adv-x="906" 
d="M592 772l-89 136l2 10h115l49 -136l-2 -10h-75zM202 0l-32 690l2 10h82l20 -564h4l268 564h90l42 -564h4l247 564h89l-2 -10l-314 -690h-88l-45 559h-4l-276 -559h-87z" />
    <glyph glyph-name="X" unicode="X" horiz-adv-x="631" 
d="M20 0l2 10l308 343l1 4l-164 333l2 10h91l132 -285h4l246 285h103l-2 -10l-299 -339l-1 -4l169 -337l-2 -10h-92l-138 285h-4l-254 -285h-102z" />
    <glyph glyph-name="Y" unicode="Y" horiz-adv-x="649" 
d="M281 0l59 292l-170 398l2 10h91l130 -324h4l261 324h103l-2 -10l-331 -398l-59 -292h-88z" />
    <glyph glyph-name="Yacute" unicode="&#xdd;" horiz-adv-x="649" 
d="M432 772l2 10l103 136h115l-2 -10l-143 -136h-75zM281 0l59 292l-170 398l2 10h91l130 -324h4l261 324h103l-2 -10l-331 -398l-59 -292h-88z" />
    <glyph glyph-name="Ycircumflex" unicode="&#x176;" horiz-adv-x="649" 
d="M331 774l2 10l129 132h111l75 -132l-2 -10h-80l-56 80h-4l-88 -80h-87zM281 0l59 292l-170 398l2 10h91l130 -324h4l261 324h103l-2 -10l-331 -398l-59 -292h-88z" />
    <glyph glyph-name="Ydieresis" unicode="&#x178;" horiz-adv-x="649" 
d="M406 798c-33 0 -48 18 -48 45c0 41 24 72 72 72c32 0 48 -18 48 -45c0 -41 -26 -72 -72 -72zM581 798c-33 0 -48 18 -48 45c0 41 24 72 72 72c32 0 48 -18 48 -45c0 -41 -26 -72 -72 -72zM281 0l59 292l-170 398l2 10h91l130 -324h4l261 324h103l-2 -10l-331 -398
l-59 -292h-88z" />
    <glyph glyph-name="Ygrave" unicode="&#x1ef2;" horiz-adv-x="649" 
d="M469 772l-89 136l2 10h115l49 -136l-2 -10h-75zM281 0l59 292l-170 398l2 10h91l130 -324h4l261 324h103l-2 -10l-331 -398l-59 -292h-88z" />
    <glyph glyph-name="Z" unicode="Z" horiz-adv-x="597" 
d="M40 0l16 77l511 538l1 4h-393l16 81h502l-16 -79l-510 -537l-1 -4h407l-16 -80h-517z" />
    <glyph glyph-name="Zacute" unicode="&#x179;" horiz-adv-x="597" 
d="M400 772l2 10l103 136h115l-2 -10l-143 -136h-75zM40 0l16 77l511 538l1 4h-393l16 81h502l-16 -79l-510 -537l-1 -4h407l-16 -80h-517z" />
    <glyph glyph-name="Zcaron" unicode="&#x17d;" horiz-adv-x="597" 
d="M398 774l-75 132l2 10h79l56 -80h4l88 80h88l-2 -10l-129 -132h-111zM40 0l16 77l511 538l1 4h-393l16 81h502l-16 -79l-510 -537l-1 -4h407l-16 -80h-517z" />
    <glyph glyph-name="Zdotaccent" unicode="&#x17b;" horiz-adv-x="597" 
d="M458 798c-33 0 -48 18 -48 45c0 41 24 72 72 72c32 0 48 -18 48 -45c0 -41 -26 -72 -72 -72zM40 0l16 77l511 538l1 4h-393l16 81h502l-16 -79l-510 -537l-1 -4h407l-16 -80h-517z" />
    <glyph glyph-name="a" unicode="a" horiz-adv-x="588" 
d="M266 -9c-119 0 -173 94 -173 207c0 171 106 322 270 322c76 0 130 -35 148 -80h4l25 71h73l-104 -511h-73l7 71h-4c-35 -47 -97 -80 -173 -80zM294 66c116 0 191 132 191 247c0 77 -37 132 -115 132c-138 0 -190 -132 -190 -243c0 -76 32 -136 114 -136z" />
    <glyph glyph-name="aacute" unicode="&#xe1;" horiz-adv-x="588" 
d="M337 583l2 10l103 136h115l-2 -10l-143 -136h-75zM266 -9c-119 0 -173 94 -173 207c0 171 106 322 270 322c76 0 130 -35 148 -80h4l25 71h73l-104 -511h-73l7 71h-4c-35 -47 -97 -80 -173 -80zM294 66c116 0 191 132 191 247c0 77 -37 132 -115 132
c-138 0 -190 -132 -190 -243c0 -76 32 -136 114 -136z" />
    <glyph glyph-name="abreve" unicode="&#x103;" horiz-adv-x="588" 
d="M395 585c-94 0 -139 60 -122 142h73c-6 -37 9 -65 60 -65c56 0 78 29 86 65h73c-7 -82 -57 -142 -170 -142zM266 -9c-119 0 -173 94 -173 207c0 171 106 322 270 322c76 0 130 -35 148 -80h4l25 71h73l-104 -511h-73l7 71h-4c-35 -47 -97 -80 -173 -80zM294 66
c116 0 191 132 191 247c0 77 -37 132 -115 132c-138 0 -190 -132 -190 -243c0 -76 32 -136 114 -136z" />
    <glyph glyph-name="uni01CE" unicode="&#x1ce;" horiz-adv-x="588" 
d="M335 585l-75 132l2 10h79l56 -80h4l88 80h88l-2 -10l-129 -132h-111zM266 -9c-119 0 -173 94 -173 207c0 171 106 322 270 322c76 0 130 -35 148 -80h4l25 71h73l-104 -511h-73l7 71h-4c-35 -47 -97 -80 -173 -80zM294 66c116 0 191 132 191 247c0 77 -37 132 -115 132
c-138 0 -190 -132 -190 -243c0 -76 32 -136 114 -136z" />
    <glyph glyph-name="acircumflex" unicode="&#xe2;" horiz-adv-x="588" 
d="M236 585l2 10l129 132h111l75 -132l-2 -10h-80l-56 80h-4l-88 -80h-87zM266 -9c-119 0 -173 94 -173 207c0 171 106 322 270 322c76 0 130 -35 148 -80h4l25 71h73l-104 -511h-73l7 71h-4c-35 -47 -97 -80 -173 -80zM294 66c116 0 191 132 191 247c0 77 -37 132 -115 132
c-138 0 -190 -132 -190 -243c0 -76 32 -136 114 -136z" />
    <glyph glyph-name="adieresis" unicode="&#xe4;" horiz-adv-x="588" 
d="M311 609c-33 0 -48 18 -48 45c0 41 24 72 72 72c32 0 48 -18 48 -45c0 -41 -26 -72 -72 -72zM486 609c-33 0 -48 18 -48 45c0 41 24 72 72 72c32 0 48 -18 48 -45c0 -41 -26 -72 -72 -72zM266 -9c-119 0 -173 94 -173 207c0 171 106 322 270 322c76 0 130 -35 148 -80h4
l25 71h73l-104 -511h-73l7 71h-4c-35 -47 -97 -80 -173 -80zM294 66c116 0 191 132 191 247c0 77 -37 132 -115 132c-138 0 -190 -132 -190 -243c0 -76 32 -136 114 -136z" />
    <glyph glyph-name="agrave" unicode="&#xe0;" horiz-adv-x="588" 
d="M374 583l-89 136l2 10h115l49 -136l-2 -10h-75zM266 -9c-119 0 -173 94 -173 207c0 171 106 322 270 322c76 0 130 -35 148 -80h4l25 71h73l-104 -511h-73l7 71h-4c-35 -47 -97 -80 -173 -80zM294 66c116 0 191 132 191 247c0 77 -37 132 -115 132
c-138 0 -190 -132 -190 -243c0 -76 32 -136 114 -136z" />
    <glyph glyph-name="amacron" unicode="&#x101;" horiz-adv-x="588" 
d="M263 617l16 81h273l-16 -81h-273zM266 -9c-119 0 -173 94 -173 207c0 171 106 322 270 322c76 0 130 -35 148 -80h4l25 71h73l-104 -511h-73l7 71h-4c-35 -47 -97 -80 -173 -80zM294 66c116 0 191 132 191 247c0 77 -37 132 -115 132c-138 0 -190 -132 -190 -243
c0 -76 32 -136 114 -136z" />
    <glyph glyph-name="aogonek" unicode="&#x105;" horiz-adv-x="588" 
d="M509 0c-46 -20 -106 -53 -106 -106c0 -27 21 -38 45 -38c16 0 24 2 33 4l-14 -68c-14 -5 -27 -8 -52 -8c-55 0 -97 31 -97 84c0 76 65 119 119 143l6 60h-4c-35 -47 -97 -80 -173 -80c-119 0 -173 94 -173 207c0 171 106 322 270 322c76 0 130 -35 148 -80h4l25 71h73z
M294 66c116 0 191 132 191 247c0 77 -37 132 -115 132c-138 0 -190 -132 -190 -243c0 -76 32 -136 114 -136z" />
    <glyph glyph-name="aring" unicode="&#xe5;" horiz-adv-x="588" 
d="M387 572c-55 0 -91 42 -91 94c0 74 59 125 136 125c57 0 92 -41 92 -94c0 -74 -56 -125 -137 -125zM399 633c37 0 60 25 60 57c0 23 -15 40 -40 40c-38 0 -59 -27 -59 -59c0 -22 14 -38 39 -38zM266 -9c-119 0 -173 94 -173 207c0 171 106 322 270 322
c76 0 130 -35 148 -80h4l25 71h73l-104 -511h-73l7 71h-4c-35 -47 -97 -80 -173 -80zM294 66c116 0 191 132 191 247c0 77 -37 132 -115 132c-138 0 -190 -132 -190 -243c0 -76 32 -136 114 -136z" />
    <glyph glyph-name="atilde" unicode="&#xe3;" horiz-adv-x="588" 
d="M440 599c-26 0 -45 10 -62 22l-12 9c-11 8 -22 14 -38 14c-21 0 -40 -16 -46 -43h-60l3 15c13 65 63 98 118 98c27 0 46 -10 63 -22l12 -9c11 -8 24 -14 37 -14c22 0 41 18 46 43h59l-3 -15c-13 -66 -62 -98 -117 -98zM266 -9c-119 0 -173 94 -173 207
c0 171 106 322 270 322c76 0 130 -35 148 -80h4l25 71h73l-104 -511h-73l7 71h-4c-35 -47 -97 -80 -173 -80zM294 66c116 0 191 132 191 247c0 77 -37 132 -115 132c-138 0 -190 -132 -190 -243c0 -76 32 -136 114 -136z" />
    <glyph glyph-name="ae" unicode="&#xe6;" horiz-adv-x="882" 
d="M226 -9c-97 0 -149 56 -149 131c0 95 74 187 247 187c54 0 92 -9 123 -18l10 51c11 57 -14 106 -97 106c-75 0 -120 -42 -131 -91h-81c20 98 115 163 227 163c81 0 130 -32 153 -78h4c46 48 105 78 185 78c144 0 198 -107 170 -249l-8 -41h-364c-20 -97 15 -164 110 -164
c67 0 121 28 146 82h84c-33 -94 -136 -157 -245 -157c-90 0 -143 40 -165 104h-4c-32 -47 -105 -104 -215 -104zM530 300h276c17 81 -13 145 -104 145c-96 0 -153 -65 -172 -145zM255 61c87 0 158 63 172 137l5 26c-39 13 -77 18 -122 18c-96 0 -147 -41 -147 -109
c0 -41 29 -72 92 -72z" />
    <glyph glyph-name="b" unicode="b" horiz-adv-x="599" 
d="M338 -9c-76 0 -128 35 -146 80h-4l-25 -71h-73l151 740h84l-61 -300h4c32 45 86 80 160 80c126 0 181 -88 181 -202c0 -158 -92 -327 -271 -327zM331 66c138 0 192 132 192 242c0 76 -32 137 -114 137c-128 0 -192 -125 -192 -239c0 -77 34 -140 114 -140z" />
    <glyph glyph-name="c" unicode="c" horiz-adv-x="543" 
d="M280 -9c-125 0 -187 77 -187 198c0 184 101 331 288 331c135 0 189 -75 178 -184h-84c9 68 -29 109 -103 109c-137 0 -192 -130 -192 -244c0 -78 32 -136 114 -136c76 0 129 39 150 107h84c-32 -108 -105 -181 -248 -181z" />
    <glyph glyph-name="cacute" unicode="&#x107;" horiz-adv-x="543" 
d="M348 583l2 10l103 136h115l-2 -10l-143 -136h-75zM280 -9c-125 0 -187 77 -187 198c0 184 101 331 288 331c135 0 189 -75 178 -184h-84c9 68 -29 109 -103 109c-137 0 -192 -130 -192 -244c0 -78 32 -136 114 -136c76 0 129 39 150 107h84c-32 -108 -105 -181 -248 -181
z" />
    <glyph glyph-name="ccaron" unicode="&#x10d;" horiz-adv-x="543" 
d="M346 585l-75 132l2 10h79l56 -80h4l88 80h88l-2 -10l-129 -132h-111zM280 -9c-125 0 -187 77 -187 198c0 184 101 331 288 331c135 0 189 -75 178 -184h-84c9 68 -29 109 -103 109c-137 0 -192 -130 -192 -244c0 -78 32 -136 114 -136c76 0 129 39 150 107h84
c-32 -108 -105 -181 -248 -181z" />
    <glyph glyph-name="ccedilla" unicode="&#xe7;" horiz-adv-x="543" 
d="M559 336h-84c9 68 -29 109 -103 109c-137 0 -192 -130 -192 -244c0 -78 32 -136 114 -136c76 0 129 39 150 107h84c-30 -102 -97 -173 -225 -180l-30 -38c49 0 82 -27 82 -68c0 -51 -42 -104 -137 -104c-60 0 -107 29 -95 91h60c-4 -21 11 -34 45 -34c27 0 55 12 55 38
c0 15 -14 27 -39 27h-32l-18 31l42 60c-95 16 -143 88 -143 194c0 184 101 331 288 331c135 0 189 -75 178 -184z" />
    <glyph glyph-name="ccircumflex" unicode="&#x109;" horiz-adv-x="543" 
d="M247 585l2 10l129 132h111l75 -132l-2 -10h-80l-56 80h-4l-88 -80h-87zM280 -9c-125 0 -187 77 -187 198c0 184 101 331 288 331c135 0 189 -75 178 -184h-84c9 68 -29 109 -103 109c-137 0 -192 -130 -192 -244c0 -78 32 -136 114 -136c76 0 129 39 150 107h84
c-32 -108 -105 -181 -248 -181z" />
    <glyph glyph-name="cdotaccent" unicode="&#x10b;" horiz-adv-x="543" 
d="M406 609c-33 0 -48 18 -48 45c0 41 24 72 72 72c32 0 48 -18 48 -45c0 -41 -26 -72 -72 -72zM280 -9c-125 0 -187 77 -187 198c0 184 101 331 288 331c135 0 189 -75 178 -184h-84c9 68 -29 109 -103 109c-137 0 -192 -130 -192 -244c0 -78 32 -136 114 -136
c76 0 129 39 150 107h84c-32 -108 -105 -181 -248 -181z" />
    <glyph glyph-name="d" unicode="d" horiz-adv-x="589" 
d="M265 -9c-106 0 -172 87 -172 200c0 165 92 329 271 329c76 0 129 -35 147 -80h4l61 300h84l-151 -740h-73l3 71h-4c-36 -45 -94 -80 -170 -80zM294 66c126 0 192 125 192 244c0 79 -36 135 -117 135c-138 0 -189 -126 -189 -244c0 -79 34 -135 114 -135z" />
    <glyph glyph-name="eth" unicode="&#xf0;" horiz-adv-x="562" 
d="M450 638c80 -89 126 -198 122 -316v-4c0 -164 -96 -327 -293 -327c-130 0 -186 87 -186 200c0 167 101 329 294 329c18 0 35 -2 51 -5c-17 29 -38 57 -62 84l-117 -61l-24 54l98 52c-34 32 -72 62 -111 86l2 10h107c27 -18 52 -37 75 -58l106 56l24 -55zM294 66
c139 0 192 125 192 244c0 79 -33 135 -114 135c-138 0 -192 -126 -192 -244c0 -79 34 -135 114 -135z" />
    <glyph glyph-name="dcaron" unicode="&#x10f;" horiz-adv-x="589" 
d="M265 -9c-106 0 -172 87 -172 200c0 165 92 329 271 329c76 0 129 -35 147 -80h4l61 300h84l-151 -740h-73l3 71h-4c-36 -45 -94 -80 -170 -80zM681 570l35 170h94l-2 -10l-68 -160h-59zM294 66c126 0 192 125 192 244c0 79 -36 135 -117 135c-138 0 -189 -126 -189 -244
c0 -79 34 -135 114 -135z" />
    <glyph glyph-name="dcroat" unicode="&#x111;" horiz-adv-x="589" 
d="M711 665l-13 -65h-67l-122 -600h-73l3 71h-4c-36 -45 -94 -80 -170 -80c-106 0 -172 87 -172 200c0 165 92 329 271 329c76 0 129 -35 147 -80h4l33 160h-114l13 65h114l15 75h84l-15 -75h66zM294 66c126 0 192 125 192 244c0 79 -36 135 -117 135
c-138 0 -189 -126 -189 -244c0 -79 34 -135 114 -135z" />
    <glyph glyph-name="e" unicode="e" horiz-adv-x="552" 
d="M287 -9c-127 0 -193 87 -193 203c0 165 94 326 288 326c144 0 203 -107 175 -249l-8 -41h-367c-13 -97 21 -164 113 -164c67 0 121 28 146 82h84c-33 -94 -117 -157 -238 -157zM197 300h279c17 81 -13 145 -104 145c-96 0 -156 -65 -175 -145z" />
    <glyph glyph-name="eacute" unicode="&#xe9;" horiz-adv-x="552" 
d="M347 583l2 10l103 136h115l-2 -10l-143 -136h-75zM287 -9c-127 0 -193 87 -193 203c0 165 94 326 288 326c144 0 203 -107 175 -249l-8 -41h-367c-13 -97 21 -164 113 -164c67 0 121 28 146 82h84c-33 -94 -117 -157 -238 -157zM197 300h279c17 81 -13 145 -104 145
c-96 0 -156 -65 -175 -145z" />
    <glyph glyph-name="ebreve" unicode="&#x115;" horiz-adv-x="552" 
d="M405 585c-94 0 -139 60 -122 142h73c-6 -37 9 -65 60 -65c56 0 78 29 86 65h73c-7 -82 -57 -142 -170 -142zM287 -9c-127 0 -193 87 -193 203c0 165 94 326 288 326c144 0 203 -107 175 -249l-8 -41h-367c-13 -97 21 -164 113 -164c67 0 121 28 146 82h84
c-33 -94 -117 -157 -238 -157zM197 300h279c17 81 -13 145 -104 145c-96 0 -156 -65 -175 -145z" />
    <glyph glyph-name="ecaron" unicode="&#x11b;" horiz-adv-x="552" 
d="M345 585l-75 132l2 10h79l56 -80h4l88 80h88l-2 -10l-129 -132h-111zM287 -9c-127 0 -193 87 -193 203c0 165 94 326 288 326c144 0 203 -107 175 -249l-8 -41h-367c-13 -97 21 -164 113 -164c67 0 121 28 146 82h84c-33 -94 -117 -157 -238 -157zM197 300h279
c17 81 -13 145 -104 145c-96 0 -156 -65 -175 -145z" />
    <glyph glyph-name="ecircumflex" unicode="&#xea;" horiz-adv-x="552" 
d="M246 585l2 10l129 132h111l75 -132l-2 -10h-80l-56 80h-4l-88 -80h-87zM287 -9c-127 0 -193 87 -193 203c0 165 94 326 288 326c144 0 203 -107 175 -249l-8 -41h-367c-13 -97 21 -164 113 -164c67 0 121 28 146 82h84c-33 -94 -117 -157 -238 -157zM197 300h279
c17 81 -13 145 -104 145c-96 0 -156 -65 -175 -145z" />
    <glyph glyph-name="edieresis" unicode="&#xeb;" horiz-adv-x="552" 
d="M321 609c-33 0 -48 18 -48 45c0 41 24 72 72 72c32 0 48 -18 48 -45c0 -41 -26 -72 -72 -72zM496 609c-33 0 -48 18 -48 45c0 41 24 72 72 72c32 0 48 -18 48 -45c0 -41 -26 -72 -72 -72zM287 -9c-127 0 -193 87 -193 203c0 165 94 326 288 326c144 0 203 -107 175 -249
l-8 -41h-367c-13 -97 21 -164 113 -164c67 0 121 28 146 82h84c-33 -94 -117 -157 -238 -157zM197 300h279c17 81 -13 145 -104 145c-96 0 -156 -65 -175 -145z" />
    <glyph glyph-name="edotaccent" unicode="&#x117;" horiz-adv-x="552" 
d="M405 609c-33 0 -48 18 -48 45c0 41 24 72 72 72c32 0 48 -18 48 -45c0 -41 -26 -72 -72 -72zM287 -9c-127 0 -193 87 -193 203c0 165 94 326 288 326c144 0 203 -107 175 -249l-8 -41h-367c-13 -97 21 -164 113 -164c67 0 121 28 146 82h84c-33 -94 -117 -157 -238 -157z
M197 300h279c17 81 -13 145 -104 145c-96 0 -156 -65 -175 -145z" />
    <glyph glyph-name="egrave" unicode="&#xe8;" horiz-adv-x="552" 
d="M384 583l-89 136l2 10h115l49 -136l-2 -10h-75zM287 -9c-127 0 -193 87 -193 203c0 165 94 326 288 326c144 0 203 -107 175 -249l-8 -41h-367c-13 -97 21 -164 113 -164c67 0 121 28 146 82h84c-33 -94 -117 -157 -238 -157zM197 300h279c17 81 -13 145 -104 145
c-96 0 -156 -65 -175 -145z" />
    <glyph glyph-name="emacron" unicode="&#x113;" horiz-adv-x="552" 
d="M273 617l16 81h273l-16 -81h-273zM287 -9c-127 0 -193 87 -193 203c0 165 94 326 288 326c144 0 203 -107 175 -249l-8 -41h-367c-13 -97 21 -164 113 -164c67 0 121 28 146 82h84c-33 -94 -117 -157 -238 -157zM197 300h279c17 81 -13 145 -104 145
c-96 0 -156 -65 -175 -145z" />
    <glyph glyph-name="eogonek" unicode="&#x119;" horiz-adv-x="552" 
d="M382 520c144 0 203 -107 175 -249l-8 -41h-367c-13 -97 21 -164 113 -164c67 0 121 28 146 82h84c-28 -79 -91 -136 -182 -152c-45 -21 -97 -53 -97 -102c0 -27 21 -38 45 -38c16 0 24 2 33 4l-14 -68c-14 -5 -27 -8 -52 -8c-55 0 -97 31 -97 84c0 61 42 100 86 126
c-101 17 -153 97 -153 200c0 165 94 326 288 326zM476 300c17 81 -13 145 -104 145c-96 0 -156 -65 -175 -145h279z" />
    <glyph glyph-name="uni1EBD" unicode="&#x1ebd;" horiz-adv-x="552" 
d="M450 599c-26 0 -45 10 -62 22l-12 9c-11 8 -22 14 -38 14c-21 0 -40 -16 -46 -43h-60l3 15c13 65 63 98 118 98c27 0 46 -10 63 -22l12 -9c11 -8 24 -14 37 -14c22 0 41 18 46 43h59l-3 -15c-13 -66 -62 -98 -117 -98zM287 -9c-127 0 -193 87 -193 203
c0 165 94 326 288 326c144 0 203 -107 175 -249l-8 -41h-367c-13 -97 21 -164 113 -164c67 0 121 28 146 82h84c-33 -94 -117 -157 -238 -157zM197 300h279c17 81 -13 145 -104 145c-96 0 -156 -65 -175 -145z" />
    <glyph glyph-name="f" unicode="f" horiz-adv-x="370" 
d="M75 -229l137 670h-91l14 70h91l18 89c18 88 78 150 180 150c27 0 45 -3 62 -7l-14 -70c-14 3 -32 5 -49 5c-50 0 -85 -28 -95 -78l-18 -89h124l-14 -70h-124l-137 -670h-84z" />
    <glyph glyph-name="g" unicode="g" horiz-adv-x="589" 
d="M239 -238c-131 0 -204 75 -187 173h81c-6 -49 22 -101 116 -101c98 0 154 61 170 138l20 99h-4c-36 -45 -94 -80 -170 -80c-106 0 -172 87 -172 200c0 165 92 329 271 329c76 0 129 -35 147 -80h4l25 71h73l-110 -541c-24 -117 -93 -208 -264 -208zM294 66
c126 0 192 125 192 244c0 79 -36 135 -117 135c-138 0 -189 -126 -189 -244c0 -79 34 -135 114 -135z" />
    <glyph glyph-name="gbreve" unicode="&#x11f;" horiz-adv-x="589" 
d="M405 585c-94 0 -139 60 -122 142h73c-6 -37 9 -65 60 -65c56 0 78 29 86 65h73c-7 -82 -57 -142 -170 -142zM239 -238c-131 0 -204 75 -187 173h81c-6 -49 22 -101 116 -101c98 0 154 61 170 138l20 99h-4c-36 -45 -94 -80 -170 -80c-106 0 -172 87 -172 200
c0 165 92 329 271 329c76 0 129 -35 147 -80h4l25 71h73l-110 -541c-24 -117 -93 -208 -264 -208zM294 66c126 0 192 125 192 244c0 79 -36 135 -117 135c-138 0 -189 -126 -189 -244c0 -79 34 -135 114 -135z" />
    <glyph glyph-name="gcaron" unicode="&#x1e7;" horiz-adv-x="589" 
d="M345 585l-75 132l2 10h79l56 -80h4l88 80h88l-2 -10l-129 -132h-111zM239 -238c-131 0 -204 75 -187 173h81c-6 -49 22 -101 116 -101c98 0 154 61 170 138l20 99h-4c-36 -45 -94 -80 -170 -80c-106 0 -172 87 -172 200c0 165 92 329 271 329c76 0 129 -35 147 -80h4
l25 71h73l-110 -541c-24 -117 -93 -208 -264 -208zM294 66c126 0 192 125 192 244c0 79 -36 135 -117 135c-138 0 -189 -126 -189 -244c0 -79 34 -135 114 -135z" />
    <glyph glyph-name="gcircumflex" unicode="&#x11d;" horiz-adv-x="589" 
d="M246 585l2 10l129 132h111l75 -132l-2 -10h-80l-56 80h-4l-88 -80h-87zM239 -238c-131 0 -204 75 -187 173h81c-6 -49 22 -101 116 -101c98 0 154 61 170 138l20 99h-4c-36 -45 -94 -80 -170 -80c-106 0 -172 87 -172 200c0 165 92 329 271 329c76 0 129 -35 147 -80h4
l25 71h73l-110 -541c-24 -117 -93 -208 -264 -208zM294 66c126 0 192 125 192 244c0 79 -36 135 -117 135c-138 0 -189 -126 -189 -244c0 -79 34 -135 114 -135z" />
    <glyph glyph-name="gcommaaccent" unicode="&#x123;" horiz-adv-x="589" 
d="M482 735l-2 -10l-49 -150h-94l2 10l80 150h63zM239 -238c-131 0 -204 75 -187 173h81c-6 -49 22 -101 116 -101c98 0 154 61 170 138l20 99h-4c-36 -45 -94 -80 -170 -80c-106 0 -172 87 -172 200c0 165 92 329 271 329c76 0 129 -35 147 -80h4l25 71h73l-110 -541
c-24 -117 -93 -208 -264 -208zM294 66c126 0 192 125 192 244c0 79 -36 135 -117 135c-138 0 -189 -126 -189 -244c0 -79 34 -135 114 -135z" />
    <glyph glyph-name="gdotaccent" unicode="&#x121;" horiz-adv-x="589" 
d="M405 609c-33 0 -48 18 -48 45c0 41 24 72 72 72c32 0 48 -18 48 -45c0 -41 -26 -72 -72 -72zM239 -238c-131 0 -204 75 -187 173h81c-6 -49 22 -101 116 -101c98 0 154 61 170 138l20 99h-4c-36 -45 -94 -80 -170 -80c-106 0 -172 87 -172 200c0 165 92 329 271 329
c76 0 129 -35 147 -80h4l25 71h73l-110 -541c-24 -117 -93 -208 -264 -208zM294 66c126 0 192 125 192 244c0 79 -36 135 -117 135c-138 0 -189 -126 -189 -244c0 -79 34 -135 114 -135z" />
    <glyph glyph-name="h" unicode="h" horiz-adv-x="595" 
d="M90 0l151 740h84l-63 -309h4c37 52 95 89 174 89c113 0 167 -71 143 -188l-68 -332h-84l65 319c16 80 -13 126 -94 126c-83 0 -150 -62 -171 -165l-57 -280h-84z" />
    <glyph glyph-name="hbar" unicode="&#x127;" horiz-adv-x="595" 
d="M440 520c113 0 167 -71 143 -188l-68 -332h-84l65 319c16 80 -13 126 -94 126c-83 0 -150 -62 -171 -165l-57 -280h-84l122 600h-66l13 65h67l15 75h84l-15 -75h113l-13 -65h-114l-34 -169h4c37 52 95 89 174 89z" />
    <glyph glyph-name="hcircumflex" unicode="&#x125;" horiz-adv-x="595" 
d="M138 785l2 10l129 132h111l75 -132l-2 -10h-80l-56 80h-4l-88 -80h-87zM90 0l151 740h84l-63 -309h4c37 52 95 89 174 89c113 0 167 -71 143 -188l-68 -332h-84l65 319c16 80 -13 126 -94 126c-83 0 -150 -62 -171 -165l-57 -280h-84z" />
    <glyph glyph-name="i" unicode="i" 
d="M256 609c-33 0 -48 18 -48 45c0 41 24 72 72 72c32 0 48 -18 48 -45c0 -41 -26 -72 -72 -72zM90 0l104 511h84l-104 -511h-84z" />
    <glyph glyph-name="dotlessi" unicode="&#x131;" 
d="M90 0l104 511h84l-104 -511h-84z" />
    <glyph glyph-name="iacute" unicode="&#xed;" 
d="M198 583l2 10l103 136h115l-2 -10l-143 -136h-75zM90 0l104 511h84l-104 -511h-84z" />
    <glyph glyph-name="ibreve" unicode="&#x12d;" 
d="M256 585c-94 0 -139 60 -122 142h73c-6 -37 9 -65 60 -65c56 0 78 29 86 65h73c-7 -82 -57 -142 -170 -142zM90 0l104 511h84l-104 -511h-84z" />
    <glyph glyph-name="uni01D0" unicode="&#x1d0;" 
d="M196 585l-75 132l2 10h79l56 -80h4l88 80h88l-2 -10l-129 -132h-111zM90 0l104 511h84l-104 -511h-84z" />
    <glyph glyph-name="icircumflex" unicode="&#xee;" 
d="M97 585l2 10l129 132h111l75 -132l-2 -10h-80l-56 80h-4l-88 -80h-87zM90 0l104 511h84l-104 -511h-84z" />
    <glyph glyph-name="idieresis" unicode="&#xef;" 
d="M172 609c-33 0 -48 18 -48 45c0 41 24 72 72 72c32 0 48 -18 48 -45c0 -41 -26 -72 -72 -72zM347 609c-33 0 -48 18 -48 45c0 41 24 72 72 72c32 0 48 -18 48 -45c0 -41 -26 -72 -72 -72zM90 0l104 511h84l-104 -511h-84z" />
    <glyph glyph-name="i.loclTRK" 
d="M256 609c-33 0 -48 18 -48 45c0 41 24 72 72 72c32 0 48 -18 48 -45c0 -41 -26 -72 -72 -72zM90 0l104 511h84l-104 -511h-84z" />
    <glyph glyph-name="igrave" unicode="&#xec;" 
d="M235 583l-89 136l2 10h115l49 -136l-2 -10h-75zM90 0l104 511h84l-104 -511h-84z" />
    <glyph glyph-name="ij" unicode="&#x133;" horiz-adv-x="522" 
d="M256 609c-33 0 -48 18 -48 45c0 41 24 72 72 72c32 0 48 -18 48 -45c0 -41 -26 -72 -72 -72zM524 609c-33 0 -48 18 -48 45c0 41 24 72 72 72c32 0 48 -18 48 -45c0 -41 -26 -72 -72 -72zM90 0l104 511h84l-104 -511h-84zM252 -238c-13 0 -32 2 -45 6l14 71
c13 -2 25 -3 38 -3c47 0 70 26 80 73l122 602h85l-122 -601c-20 -98 -69 -148 -172 -148z" />
    <glyph glyph-name="imacron" unicode="&#x12b;" 
d="M124 617l16 81h273l-16 -81h-273zM90 0l104 511h84l-104 -511h-84z" />
    <glyph glyph-name="iogonek" unicode="&#x12f;" 
d="M280 726c32 0 48 -18 48 -45c0 -41 -26 -72 -72 -72c-33 0 -48 18 -48 45c0 41 24 72 72 72zM91 6l103 505h84l-104 -511c-46 -20 -106 -53 -106 -106c0 -27 21 -38 45 -38c16 0 24 2 33 4l-14 -68c-14 -5 -27 -8 -52 -8c-55 0 -97 31 -97 84c0 71 57 113 108 138z" />
    <glyph glyph-name="itilde" unicode="&#x129;" 
d="M301 599c-26 0 -45 10 -62 22l-12 9c-11 8 -22 14 -38 14c-21 0 -40 -16 -46 -43h-60l3 15c13 65 63 98 118 98c27 0 46 -10 63 -22l12 -9c11 -8 24 -14 37 -14c22 0 41 18 46 43h59l-3 -15c-13 -66 -62 -98 -117 -98zM90 0l104 511h84l-104 -511h-84z" />
    <glyph glyph-name="j" unicode="j" horiz-adv-x="268" 
d="M270 609c-33 0 -48 18 -48 45c0 41 24 72 72 72c32 0 48 -18 48 -45c0 -41 -26 -72 -72 -72zM-2 -238c-13 0 -32 2 -45 6l14 71c13 -2 25 -3 38 -3c47 0 70 26 80 73l122 602h85l-122 -601c-20 -98 -69 -148 -172 -148z" />
    <glyph glyph-name="uni0237" unicode="&#x237;" horiz-adv-x="268" 
d="M-8 -238c-13 0 -26 2 -39 6l14 71c13 -2 25 -3 38 -3c47 0 70 26 80 73l122 602h85l-122 -601c-20 -98 -75 -148 -178 -148z" />
    <glyph glyph-name="jcircumflex" unicode="&#x135;" horiz-adv-x="268" 
d="M109 585l2 10l129 132h111l75 -132l-2 -10h-80l-56 80h-4l-88 -80h-87zM-8 -238c-13 0 -26 2 -39 6l14 71c13 -2 25 -3 38 -3c47 0 70 26 80 73l122 602h85l-122 -601c-20 -98 -75 -148 -178 -148z" />
    <glyph glyph-name="k" unicode="k" horiz-adv-x="515" 
d="M593 511l-2 -10l-261 -224l167 -267l-2 -10h-86l-177 286l-58 -286h-84l151 740h84l-92 -452l256 223h104z" />
    <glyph glyph-name="kcommaaccent" unicode="&#x137;" horiz-adv-x="515" 
d="M593 511l-2 -10l-261 -224l167 -267l-2 -10h-86l-177 286l-58 -286h-84l151 740h84l-92 -452l256 223h104zM181 -201l49 150h94l-2 -10l-80 -150h-63z" />
    <glyph glyph-name="kgreenlandic" unicode="&#x138;" horiz-adv-x="515" 
d="M593 511l-2 -10l-253 -224l159 -267l-2 -10h-97l-168 277l-56 -277h-84l104 511h84l-48 -234l264 234h99z" />
    <glyph glyph-name="l" unicode="l" 
d="M90 0l151 740h84l-151 -740h-84z" />
    <glyph glyph-name="lacute" unicode="&#x13a;" 
d="M239 783l2 10l103 136h115l-2 -10l-143 -136h-75zM90 0l151 740h84l-151 -740h-84z" />
    <glyph glyph-name="lcaron" unicode="&#x13e;" horiz-adv-x="274" 
d="M90 0l151 740h84l-151 -740h-84zM346 570l35 170h94l-2 -10l-68 -160h-59z" />
    <glyph glyph-name="lcommaaccent" unicode="&#x13c;" 
d="M90 0l151 740h84l-151 -740h-84zM22 -211l2 10l49 150h94l-2 -10l-80 -150h-63z" />
    <glyph glyph-name="ldot" unicode="&#x140;" horiz-adv-x="368" 
d="M90 0l151 740h84l-151 -740h-84zM338 311c-33 0 -48 19 -48 47c0 41 26 74 73 74c32 0 48 -20 48 -47c0 -41 -28 -74 -73 -74z" />
    <glyph glyph-name="lslash" unicode="&#x142;" horiz-adv-x="357" 
d="M409 454l-16 -79l-108 -50l-66 -325h-84l58 282l-84 -39h-10l16 77l94 45l77 375h84l-68 -332l97 46h10z" />
    <glyph glyph-name="m" unicode="m" horiz-adv-x="906" 
d="M756 520c113 0 161 -73 138 -188l-68 -332h-84l65 319c16 78 -9 126 -87 126c-74 0 -132 -52 -157 -141l-62 -304h-84l65 319c16 78 -9 126 -87 126c-80 0 -143 -60 -164 -163l-57 -282h-84l104 511h73l-9 -80h4c37 52 92 89 171 89c74 0 120 -33 136 -89h4
c37 52 97 89 183 89z" />
    <glyph glyph-name="n" unicode="n" horiz-adv-x="591" 
d="M90 0l104 511h73l-9 -80h4c37 52 97 89 176 89c113 0 165 -71 141 -188l-68 -332h-84l65 319c16 80 -11 126 -92 126c-85 0 -148 -60 -169 -163l-57 -282h-84z" />
    <glyph glyph-name="nacute" unicode="&#x144;" horiz-adv-x="591" 
d="M387 583l2 10l103 136h115l-2 -10l-143 -136h-75zM90 0l104 511h73l-9 -80h4c37 52 97 89 176 89c113 0 165 -71 141 -188l-68 -332h-84l65 319c16 80 -11 126 -92 126c-85 0 -148 -60 -169 -163l-57 -282h-84z" />
    <glyph glyph-name="napostrophe" unicode="&#x149;" horiz-adv-x="591" 
d="M49 463l2 10l77 227h99l-2 -10l-108 -227h-68zM90 0l104 511h73l-9 -80h4c37 52 97 89 176 89c113 0 165 -71 141 -188l-68 -332h-84l65 319c16 80 -11 126 -92 126c-85 0 -148 -60 -169 -163l-57 -282h-84z" />
    <glyph glyph-name="ncaron" unicode="&#x148;" horiz-adv-x="591" 
d="M385 585l-75 132l2 10h79l56 -80h4l88 80h88l-2 -10l-129 -132h-111zM90 0l104 511h73l-9 -80h4c37 52 97 89 176 89c113 0 165 -71 141 -188l-68 -332h-84l65 319c16 80 -11 126 -92 126c-85 0 -148 -60 -169 -163l-57 -282h-84z" />
    <glyph glyph-name="ncommaaccent" unicode="&#x146;" horiz-adv-x="591" 
d="M90 0l104 511h73l-9 -80h4c37 52 97 89 176 89c113 0 165 -71 141 -188l-68 -332h-84l65 319c16 80 -11 126 -92 126c-85 0 -148 -60 -169 -163l-57 -282h-84zM197 -211l2 10l49 150h94l-2 -10l-80 -150h-63z" />
    <glyph glyph-name="eng" unicode="&#x14b;" horiz-adv-x="591" 
d="M438 520c113 0 165 -71 141 -188l-45 -221l-41 -201c-20 -98 -75 -148 -178 -148c-13 0 -26 2 -39 6l14 71c13 -2 25 -3 38 -3c47 0 70 26 80 73l41 202h1l42 208c16 80 -11 126 -92 126c-85 0 -148 -60 -169 -163l-57 -282h-84l104 511h73l-9 -80h4c37 52 97 89 176 89z
" />
    <glyph glyph-name="ntilde" unicode="&#xf1;" horiz-adv-x="591" 
d="M490 599c-26 0 -45 10 -62 22l-12 9c-11 8 -22 14 -38 14c-21 0 -40 -16 -46 -43h-60l3 15c13 65 63 98 118 98c27 0 46 -10 63 -22l12 -9c11 -8 24 -14 37 -14c22 0 41 18 46 43h59l-3 -15c-13 -66 -62 -98 -117 -98zM90 0l104 511h73l-9 -80h4c37 52 97 89 176 89
c113 0 165 -71 141 -188l-68 -332h-84l65 319c16 80 -11 126 -92 126c-85 0 -148 -60 -169 -163l-57 -282h-84z" />
    <glyph glyph-name="o" unicode="o" horiz-adv-x="562" 
d="M289 -9c-130 0 -196 87 -196 200c0 165 88 329 284 329c134 0 195 -88 195 -202c0 -164 -86 -327 -283 -327zM294 66c139 0 192 125 192 244c0 79 -33 135 -114 135c-138 0 -192 -126 -192 -244c0 -79 34 -135 114 -135z" />
    <glyph glyph-name="oacute" unicode="&#xf3;" horiz-adv-x="562" 
d="M347 583l2 10l103 136h115l-2 -10l-143 -136h-75zM289 -9c-130 0 -196 87 -196 200c0 165 88 329 284 329c134 0 195 -88 195 -202c0 -164 -86 -327 -283 -327zM294 66c139 0 192 125 192 244c0 79 -33 135 -114 135c-138 0 -192 -126 -192 -244c0 -79 34 -135 114 -135z
" />
    <glyph glyph-name="obreve" unicode="&#x14f;" horiz-adv-x="562" 
d="M405 585c-94 0 -139 60 -122 142h73c-6 -37 9 -65 60 -65c56 0 78 29 86 65h73c-7 -82 -57 -142 -170 -142zM289 -9c-130 0 -196 87 -196 200c0 165 88 329 284 329c134 0 195 -88 195 -202c0 -164 -86 -327 -283 -327zM294 66c139 0 192 125 192 244
c0 79 -33 135 -114 135c-138 0 -192 -126 -192 -244c0 -79 34 -135 114 -135z" />
    <glyph glyph-name="uni01D2" unicode="&#x1d2;" horiz-adv-x="562" 
d="M345 585l-75 132l2 10h79l56 -80h4l88 80h88l-2 -10l-129 -132h-111zM289 -9c-130 0 -196 87 -196 200c0 165 88 329 284 329c134 0 195 -88 195 -202c0 -164 -86 -327 -283 -327zM294 66c139 0 192 125 192 244c0 79 -33 135 -114 135c-138 0 -192 -126 -192 -244
c0 -79 34 -135 114 -135z" />
    <glyph glyph-name="ocircumflex" unicode="&#xf4;" horiz-adv-x="562" 
d="M246 585l2 10l129 132h111l75 -132l-2 -10h-80l-56 80h-4l-88 -80h-87zM289 -9c-130 0 -196 87 -196 200c0 165 88 329 284 329c134 0 195 -88 195 -202c0 -164 -86 -327 -283 -327zM294 66c139 0 192 125 192 244c0 79 -33 135 -114 135c-138 0 -192 -126 -192 -244
c0 -79 34 -135 114 -135z" />
    <glyph glyph-name="odieresis" unicode="&#xf6;" horiz-adv-x="562" 
d="M321 609c-33 0 -48 18 -48 45c0 41 24 72 72 72c32 0 48 -18 48 -45c0 -41 -26 -72 -72 -72zM496 609c-33 0 -48 18 -48 45c0 41 24 72 72 72c32 0 48 -18 48 -45c0 -41 -26 -72 -72 -72zM289 -9c-130 0 -196 87 -196 200c0 165 88 329 284 329c134 0 195 -88 195 -202
c0 -164 -86 -327 -283 -327zM294 66c139 0 192 125 192 244c0 79 -33 135 -114 135c-138 0 -192 -126 -192 -244c0 -79 34 -135 114 -135z" />
    <glyph glyph-name="ograve" unicode="&#xf2;" horiz-adv-x="562" 
d="M384 583l-89 136l2 10h115l49 -136l-2 -10h-75zM289 -9c-130 0 -196 87 -196 200c0 165 88 329 284 329c134 0 195 -88 195 -202c0 -164 -86 -327 -283 -327zM294 66c139 0 192 125 192 244c0 79 -33 135 -114 135c-138 0 -192 -126 -192 -244c0 -79 34 -135 114 -135z
" />
    <glyph glyph-name="ohungarumlaut" unicode="&#x151;" horiz-adv-x="562" 
d="M287 583l2 10l76 136h107l-2 -10l-120 -136h-63zM425 583l2 10l81 136h107l-2 -10l-125 -136h-63zM289 -9c-130 0 -196 87 -196 200c0 165 88 329 284 329c134 0 195 -88 195 -202c0 -164 -86 -327 -283 -327zM294 66c139 0 192 125 192 244c0 79 -33 135 -114 135
c-138 0 -192 -126 -192 -244c0 -79 34 -135 114 -135z" />
    <glyph glyph-name="omacron" unicode="&#x14d;" horiz-adv-x="562" 
d="M273 617l16 81h273l-16 -81h-273zM289 -9c-130 0 -196 87 -196 200c0 165 88 329 284 329c134 0 195 -88 195 -202c0 -164 -86 -327 -283 -327zM294 66c139 0 192 125 192 244c0 79 -33 135 -114 135c-138 0 -192 -126 -192 -244c0 -79 34 -135 114 -135z" />
    <glyph glyph-name="oslash" unicode="&#xf8;" horiz-adv-x="562" 
d="M624 549l-2 -10l-82 -94c22 -34 32 -78 32 -127c0 -164 -96 -327 -293 -327c-46 0 -83 11 -112 30l-52 -59h-73l2 10l81 93c-22 34 -32 78 -32 126c0 167 101 329 294 329c46 0 82 -11 110 -30l52 59h75zM180 201c0 -23 3 -45 9 -63l252 287c-18 13 -40 20 -69 20
c-138 0 -192 -126 -192 -244zM486 310c0 24 -3 45 -9 64l-253 -287c18 -14 41 -21 70 -21c139 0 192 125 192 244z" />
    <glyph glyph-name="otilde" unicode="&#xf5;" horiz-adv-x="562" 
d="M450 599c-26 0 -45 10 -62 22l-12 9c-11 8 -22 14 -38 14c-21 0 -40 -16 -46 -43h-60l3 15c13 65 63 98 118 98c27 0 46 -10 63 -22l12 -9c11 -8 24 -14 37 -14c22 0 41 18 46 43h59l-3 -15c-13 -66 -62 -98 -117 -98zM289 -9c-130 0 -196 87 -196 200
c0 165 88 329 284 329c134 0 195 -88 195 -202c0 -164 -86 -327 -283 -327zM294 66c139 0 192 125 192 244c0 79 -33 135 -114 135c-138 0 -192 -126 -192 -244c0 -79 34 -135 114 -135z" />
    <glyph glyph-name="oe" unicode="&#x153;" horiz-adv-x="929" 
d="M764 520c144 0 198 -107 170 -249l-8 -41h-363l-3 -11c-15 -91 21 -153 112 -153c67 0 121 28 146 82h84c-33 -94 -136 -157 -245 -157c-81 0 -136 37 -164 95c-48 -57 -119 -95 -214 -95c-130 0 -186 87 -186 200c0 167 101 329 294 329c84 0 137 -37 164 -94
c48 57 120 94 213 94zM294 66c98 0 153 62 177 140c1 33 6 66 15 97v7c0 79 -33 135 -114 135c-138 0 -192 -126 -192 -244c0 -79 34 -135 114 -135zM853 300c17 81 -13 145 -104 145c-96 0 -153 -65 -172 -145h276z" />
    <glyph glyph-name="p" unicode="p" horiz-adv-x="599" 
d="M43 -229l151 740h73l-3 -71h4c36 45 94 80 170 80c106 0 172 -87 172 -200c0 -165 -92 -329 -271 -329c-76 0 -129 35 -147 80h-4l-61 -300h-84zM334 66c138 0 189 126 189 244c0 79 -34 135 -114 135c-126 0 -192 -125 -192 -244c0 -79 41 -135 117 -135z" />
    <glyph glyph-name="thorn" unicode="&#xfe;" horiz-adv-x="600" 
d="M438 520c134 0 195 -100 163 -265c-32 -151 -127 -264 -271 -264c-76 0 -120 35 -138 80h-4l-61 -300h-84l151 740l47 229h84l-61 -299v-1h4c36 45 94 80 170 80zM331 66c138 0 192 132 192 242c0 76 -32 137 -114 137c-128 0 -192 -126 -192 -239
c0 -77 34 -140 114 -140z" />
    <glyph glyph-name="q" unicode="q" horiz-adv-x="589" 
d="M378 -229l61 300h-4c-32 -45 -86 -80 -160 -80c-126 0 -181 88 -181 202c0 158 92 327 271 327c76 0 128 -35 146 -80h4l25 71h73l-151 -740h-84zM294 66c128 0 192 125 192 239c0 77 -34 140 -114 140c-138 0 -192 -132 -192 -242c0 -76 32 -137 114 -137z" />
    <glyph glyph-name="r" unicode="r" horiz-adv-x="390" 
d="M90 0l104 511h73l-11 -86h4c33 57 91 92 154 92h50l-20 -81h-40c-97 0 -156 -68 -180 -188l-50 -248h-84z" />
    <glyph glyph-name="racute" unicode="&#x155;" horiz-adv-x="390" 
d="M288 583l2 10l103 136h115l-2 -10l-143 -136h-75zM90 0l104 511h73l-11 -86h4c33 57 91 92 154 92h50l-20 -81h-40c-97 0 -156 -68 -180 -188l-50 -248h-84z" />
    <glyph glyph-name="rcaron" unicode="&#x159;" horiz-adv-x="390" 
d="M286 585l-75 132l2 10h79l56 -80h4l88 80h88l-2 -10l-129 -132h-111zM90 0l104 511h73l-11 -86h4c33 57 91 92 154 92h50l-20 -81h-40c-97 0 -156 -68 -180 -188l-50 -248h-84z" />
    <glyph glyph-name="rcommaaccent" unicode="&#x157;" horiz-adv-x="390" 
d="M90 0l104 511h73l-11 -86h4c33 57 91 92 154 92h50l-20 -81h-40c-97 0 -156 -68 -180 -188l-50 -248h-84zM45 -211l2 10l49 150h94l-2 -10l-80 -150h-63z" />
    <glyph glyph-name="s" unicode="s" horiz-adv-x="511" 
d="M257 -9c-121 0 -192 66 -173 178h84c-13 -68 31 -103 104 -103c81 0 134 29 134 84c0 28 -19 56 -64 65l-92 19c-69 14 -111 58 -111 117c0 100 71 169 213 169c115 0 190 -63 169 -165h-82c10 65 -32 94 -96 94c-70 0 -121 -30 -121 -86c0 -33 28 -53 76 -62l76 -15
c78 -17 119 -50 119 -117c0 -115 -92 -178 -236 -178z" />
    <glyph glyph-name="sacute" unicode="&#x15b;" horiz-adv-x="511" 
d="M327 583l2 10l103 136h115l-2 -10l-143 -136h-75zM257 -9c-121 0 -192 66 -173 178h84c-13 -68 31 -103 104 -103c81 0 134 29 134 84c0 28 -19 56 -64 65l-92 19c-69 14 -111 58 -111 117c0 100 71 169 213 169c115 0 190 -63 169 -165h-82c10 65 -32 94 -96 94
c-70 0 -121 -30 -121 -86c0 -33 28 -53 76 -62l76 -15c78 -17 119 -50 119 -117c0 -115 -92 -178 -236 -178z" />
    <glyph glyph-name="scaron" unicode="&#x161;" horiz-adv-x="511" 
d="M325 585l-75 132l2 10h79l56 -80h4l88 80h88l-2 -10l-129 -132h-111zM257 -9c-121 0 -192 66 -173 178h84c-13 -68 31 -103 104 -103c81 0 134 29 134 84c0 28 -19 56 -64 65l-92 19c-69 14 -111 58 -111 117c0 100 71 169 213 169c115 0 190 -63 169 -165h-82
c10 65 -32 94 -96 94c-70 0 -121 -30 -121 -86c0 -33 28 -53 76 -62l76 -15c78 -17 119 -50 119 -117c0 -115 -92 -178 -236 -178z" />
    <glyph glyph-name="scedilla" unicode="&#x15f;" horiz-adv-x="511" 
d="M521 355h-82c10 65 -32 94 -96 94c-70 0 -121 -30 -121 -86c0 -33 28 -53 76 -62l76 -15c78 -17 119 -50 119 -117c0 -107 -80 -169 -207 -177l-30 -38c49 0 82 -27 82 -68c0 -51 -42 -104 -137 -104c-60 0 -107 29 -95 91h60c-4 -21 11 -34 45 -34c27 0 55 12 55 38
c0 15 -14 27 -39 27h-32l-18 31l41 58c-97 13 -151 76 -134 176h84c-13 -68 31 -103 104 -103c81 0 134 29 134 84c0 28 -19 56 -64 65l-92 19c-69 14 -111 58 -111 117c0 100 71 169 213 169c115 0 190 -63 169 -165z" />
    <glyph glyph-name="scircumflex" unicode="&#x15d;" horiz-adv-x="511" 
d="M226 585l2 10l129 132h111l75 -132l-2 -10h-80l-56 80h-4l-88 -80h-87zM257 -9c-121 0 -192 66 -173 178h84c-13 -68 31 -103 104 -103c81 0 134 29 134 84c0 28 -19 56 -64 65l-92 19c-69 14 -111 58 -111 117c0 100 71 169 213 169c115 0 190 -63 169 -165h-82
c10 65 -32 94 -96 94c-70 0 -121 -30 -121 -86c0 -33 28 -53 76 -62l76 -15c78 -17 119 -50 119 -117c0 -115 -92 -178 -236 -178z" />
    <glyph glyph-name="scommaaccent" unicode="&#x219;" horiz-adv-x="511" 
d="M257 -9c-121 0 -192 66 -173 178h84c-13 -68 31 -103 104 -103c81 0 134 29 134 84c0 28 -19 56 -64 65l-92 19c-69 14 -111 58 -111 117c0 100 71 169 213 169c115 0 190 -63 169 -165h-82c10 65 -32 94 -96 94c-70 0 -121 -30 -121 -86c0 -33 28 -53 76 -62l76 -15
c78 -17 119 -50 119 -117c0 -115 -92 -178 -236 -178zM153 -211l2 10l49 150h94l-2 -10l-80 -150h-63z" />
    <glyph glyph-name="germandbls" unicode="&#xdf;" horiz-adv-x="635" 
d="M408 -9c-111 0 -171 66 -152 178h84c-13 -68 20 -103 83 -103c61 0 107 30 107 84c0 28 -19 49 -54 62l-60 22c-66 24 -106 53 -106 111c0 179 230 119 230 251c0 44 -31 79 -104 79c-85 0 -135 -50 -152 -135l-157 -769h-84l159 779c22 108 113 200 250 200
c122 0 174 -71 174 -144c0 -204 -232 -140 -232 -243c0 -32 31 -44 76 -61l39 -15c72 -27 108 -65 108 -123c0 -109 -108 -173 -209 -173z" />
    <glyph glyph-name="t" unicode="t" horiz-adv-x="381" 
d="M258 -9c-95 0 -124 52 -107 137l63 312h-84l14 71h87l22 109l78 28h10l-28 -137h125l-14 -71h-126l-62 -305c-10 -49 7 -70 53 -70c24 0 40 3 51 6h10l-14 -72c-17 -4 -46 -8 -78 -8z" />
    <glyph glyph-name="tbar" unicode="&#x167;" horiz-adv-x="381" 
d="M424 440h-126l-17 -86h117l-14 -71h-118l-30 -148c-10 -49 7 -70 53 -70c24 0 40 3 51 6h10l-14 -72c-17 -4 -46 -8 -78 -8c-101 0 -124 52 -107 137l31 155h-84l14 71h85l17 86h-84l14 71h87l22 109l78 28h10l-28 -137h125z" />
    <glyph glyph-name="tcaron" unicode="&#x165;" horiz-adv-x="381" 
d="M386 570l35 170h94l-2 -10l-68 -160h-59zM258 -9c-95 0 -124 52 -107 137l63 312h-84l14 71h87l22 109l78 28h10l-28 -137h125l-14 -71h-126l-62 -305c-10 -49 7 -70 53 -70c24 0 40 3 51 6h10l-14 -72c-17 -4 -46 -8 -78 -8z" />
    <glyph glyph-name="uni0163" unicode="&#x163;" horiz-adv-x="381" 
d="M258 -9c-95 0 -124 52 -107 137l63 312h-84l14 71h87l22 109l78 28h10l-28 -137h125l-14 -71h-126l-62 -305c-10 -49 7 -70 53 -70c24 0 40 3 51 6h10l-14 -72c-17 -4 -46 -8 -78 -8zM128 -211l2 10l49 150h94l-2 -10l-80 -150h-63z" />
    <glyph glyph-name="uni021B" unicode="&#x21b;" horiz-adv-x="381" 
d="M298 440l-62 -305c-10 -49 7 -70 53 -70c24 0 40 3 51 6h10l-14 -72c-17 -4 -44 -8 -75 -8l-30 -37c49 0 82 -27 82 -68c0 -51 -42 -104 -137 -104c-60 0 -107 29 -95 91h60c-4 -21 11 -34 45 -34c27 0 55 12 55 38c0 15 -14 27 -39 27h-32l-18 31l46 66
c-47 18 -60 63 -47 127l63 312h-84l14 71h87l22 109l78 28h10l-28 -137h125l-14 -71h-126z" />
    <glyph glyph-name="u" unicode="u" horiz-adv-x="578" 
d="M517 511h85l-66 -325c-24 -117 -109 -194 -244 -194c-129 0 -198 77 -174 194l66 325h83l-63 -311c-16 -81 9 -133 98 -133s136 52 152 133z" />
    <glyph glyph-name="uacute" unicode="&#xfa;" horiz-adv-x="578" 
d="M576 719l-143 -136h-75l2 10l103 136h115zM517 511h85l-66 -325c-24 -117 -109 -194 -244 -194c-129 0 -198 77 -174 194l66 325h83l-63 -311c-16 -81 9 -133 98 -133s136 52 152 133z" />
    <glyph glyph-name="ubreve" unicode="&#x16d;" horiz-adv-x="578" 
d="M416 585c-94 0 -139 60 -122 142h73c-6 -37 9 -65 60 -65c56 0 78 29 86 65h73c-7 -82 -57 -142 -170 -142zM517 511h85l-66 -325c-24 -117 -109 -194 -244 -194c-129 0 -198 77 -174 194l66 325h83l-63 -311c-16 -81 9 -133 98 -133s136 52 152 133z" />
    <glyph glyph-name="ucircumflex" unicode="&#xfb;" horiz-adv-x="578" 
d="M432 665l-88 -80h-87l2 10l129 132h111l75 -132l-2 -10h-80l-56 80h-4zM517 511h85l-66 -325c-24 -117 -109 -194 -244 -194c-129 0 -198 77 -174 194l66 325h83l-63 -311c-16 -81 9 -133 98 -133s136 52 152 133z" />
    <glyph glyph-name="udieresis" unicode="&#xfc;" horiz-adv-x="578" 
d="M332 609c-33 0 -48 18 -48 45c0 41 24 72 72 72c32 0 48 -18 48 -45c0 -41 -26 -72 -72 -72zM507 609c-33 0 -48 18 -48 45c0 41 24 72 72 72c32 0 48 -18 48 -45c0 -41 -26 -72 -72 -72zM517 511h85l-66 -325c-24 -117 -109 -194 -244 -194c-129 0 -198 77 -174 194
l66 325h83l-63 -311c-16 -81 9 -133 98 -133s136 52 152 133z" />
    <glyph glyph-name="ugrave" unicode="&#xf9;" horiz-adv-x="578" 
d="M470 583h-75l-89 136l2 10h115l49 -136zM517 511h85l-66 -325c-24 -117 -109 -194 -244 -194c-129 0 -198 77 -174 194l66 325h83l-63 -311c-16 -81 9 -133 98 -133s136 52 152 133z" />
    <glyph glyph-name="uhungarumlaut" unicode="&#x171;" horiz-adv-x="578" 
d="M481 719l-120 -136h-63l2 10l76 136h107zM519 729h107l-2 -10l-125 -136h-63l2 10zM454 200l63 311h85l-66 -325c-24 -117 -109 -194 -244 -194c-129 0 -198 77 -174 194l66 325h83l-63 -311c-16 -81 9 -133 98 -133s136 52 152 133z" />
    <glyph glyph-name="umacron" unicode="&#x16b;" horiz-adv-x="578" 
d="M573 698l-16 -81h-273l16 81h273zM517 511h85l-66 -325c-24 -117 -109 -194 -244 -194c-129 0 -198 77 -174 194l66 325h83l-63 -311c-16 -81 9 -133 98 -133s136 52 152 133z" />
    <glyph glyph-name="uogonek" unicode="&#x173;" horiz-adv-x="578" 
d="M517 511h85l-66 -325c-21 -100 -86 -171 -188 -189c-45 -20 -99 -53 -99 -103c0 -27 21 -38 45 -38c16 0 24 2 33 4l-14 -68c-14 -5 -27 -8 -52 -8c-55 0 -97 31 -97 84c0 62 42 101 87 127c-102 15 -154 87 -133 191l66 325h83l-63 -311c-16 -81 9 -133 98 -133
s136 52 152 133z" />
    <glyph glyph-name="uring" unicode="&#x16f;" horiz-adv-x="578" 
d="M408 572c-55 0 -91 42 -91 94c0 74 59 125 136 125c57 0 92 -41 92 -94c0 -74 -56 -125 -137 -125zM440 730c-38 0 -59 -27 -59 -59c0 -22 14 -38 39 -38c37 0 60 25 60 57c0 23 -15 40 -40 40zM517 511h85l-66 -325c-24 -117 -109 -194 -244 -194
c-129 0 -198 77 -174 194l66 325h83l-63 -311c-16 -81 9 -133 98 -133s136 52 152 133z" />
    <glyph glyph-name="utilde" unicode="&#x169;" horiz-adv-x="578" 
d="M349 644c-21 0 -40 -16 -46 -43h-60l3 15c13 65 63 98 118 98c27 0 46 -10 63 -22l12 -9c11 -8 24 -14 37 -14c22 0 41 18 46 43h59l-3 -15c-13 -66 -62 -98 -117 -98c-26 0 -45 10 -62 22l-12 9c-11 8 -22 14 -38 14zM517 511h85l-66 -325c-24 -117 -109 -194 -244 -194
c-129 0 -198 77 -174 194l66 325h83l-63 -311c-16 -81 9 -133 98 -133s136 52 152 133z" />
    <glyph glyph-name="v" unicode="v" horiz-adv-x="526" 
d="M221 0l-99 501l2 10h82l75 -413h4l233 413h92l-2 -10l-300 -501h-87z" />
    <glyph glyph-name="w" unicode="w" horiz-adv-x="750" 
d="M165 0l-43 501l2 10h85l21 -397h4l201 397h86l39 -397h4l183 397h87l-2 -10l-246 -501h-87l-39 397h-4l-204 -397h-87z" />
    <glyph glyph-name="wacute" unicode="&#x1e83;" horiz-adv-x="750" 
d="M443 572l2 10l103 136h115l-2 -10l-143 -136h-75zM165 0l-43 501l2 10h85l21 -397h4l201 397h86l39 -397h4l183 397h87l-2 -10l-246 -501h-87l-39 397h-4l-204 -397h-87z" />
    <glyph glyph-name="wcircumflex" unicode="&#x175;" horiz-adv-x="750" 
d="M342 574l2 10l129 132h111l75 -132l-2 -10h-80l-56 80h-4l-88 -80h-87zM165 0l-43 501l2 10h85l21 -397h4l201 397h86l39 -397h4l183 397h87l-2 -10l-246 -501h-87l-39 397h-4l-204 -397h-87z" />
    <glyph glyph-name="wdieresis" unicode="&#x1e85;" horiz-adv-x="750" 
d="M417 598c-33 0 -48 18 -48 45c0 41 24 72 72 72c32 0 48 -18 48 -45c0 -41 -26 -72 -72 -72zM592 598c-33 0 -48 18 -48 45c0 41 24 72 72 72c32 0 48 -18 48 -45c0 -41 -26 -72 -72 -72zM165 0l-43 501l2 10h85l21 -397h4l201 397h86l39 -397h4l183 397h87l-2 -10
l-246 -501h-87l-39 397h-4l-204 -397h-87z" />
    <glyph glyph-name="wgrave" unicode="&#x1e81;" horiz-adv-x="750" 
d="M480 572l-89 136l2 10h115l49 -136l-2 -10h-75zM165 0l-43 501l2 10h85l21 -397h4l201 397h86l39 -397h4l183 397h87l-2 -10l-246 -501h-87l-39 397h-4l-204 -397h-87z" />
    <glyph glyph-name="x" unicode="x" horiz-adv-x="483" 
d="M10 0l2 10l231 252l-125 239l2 10h85l93 -197h4l176 197h96l-2 -10l-225 -244l128 -247l-2 -10h-82l-101 202h-4l-181 -202h-95z" />
    <glyph glyph-name="y" unicode="y" horiz-adv-x="527" 
d="M89 -229l2 10l132 223l-1 5l-100 492l2 10h85l71 -401h4l234 401h93l-2 -10l-432 -730h-88z" />
    <glyph glyph-name="yacute" unicode="&#xfd;" horiz-adv-x="527" 
d="M335 583l2 10l103 136h115l-2 -10l-143 -136h-75zM89 -229l2 10l132 223l-1 5l-100 492l2 10h85l71 -401h4l234 401h93l-2 -10l-432 -730h-88z" />
    <glyph glyph-name="ycircumflex" unicode="&#x177;" horiz-adv-x="527" 
d="M234 585l2 10l129 132h111l75 -132l-2 -10h-80l-56 80h-4l-88 -80h-87zM89 -229l2 10l132 223l-1 5l-100 492l2 10h85l71 -401h4l234 401h93l-2 -10l-432 -730h-88z" />
    <glyph glyph-name="ydieresis" unicode="&#xff;" horiz-adv-x="527" 
d="M309 609c-33 0 -48 18 -48 45c0 41 24 72 72 72c32 0 48 -18 48 -45c0 -41 -26 -72 -72 -72zM484 609c-33 0 -48 18 -48 45c0 41 24 72 72 72c32 0 48 -18 48 -45c0 -41 -26 -72 -72 -72zM89 -229l2 10l132 223l-1 5l-100 492l2 10h85l71 -401h4l234 401h93l-2 -10
l-432 -730h-88z" />
    <glyph glyph-name="ygrave" unicode="&#x1ef3;" horiz-adv-x="527" 
d="M372 583l-89 136l2 10h115l49 -136l-2 -10h-75zM89 -229l2 10l132 223l-1 5l-100 492l2 10h85l71 -401h4l234 401h93l-2 -10l-432 -730h-88z" />
    <glyph glyph-name="z" unicode="z" horiz-adv-x="502" 
d="M55 0l14 69l359 367l1 4h-283l14 71h389l-14 -70l-358 -366l-1 -4h285l-14 -71h-392z" />
    <glyph glyph-name="zacute" unicode="&#x17a;" horiz-adv-x="502" 
d="M317 583l2 10l103 136h115l-2 -10l-143 -136h-75zM55 0l14 69l359 367l1 4h-283l14 71h389l-14 -70l-358 -366l-1 -4h285l-14 -71h-392z" />
    <glyph glyph-name="zcaron" unicode="&#x17e;" horiz-adv-x="502" 
d="M315 585l-75 132l2 10h79l56 -80h4l88 80h88l-2 -10l-129 -132h-111zM55 0l14 69l359 367l1 4h-283l14 71h389l-14 -70l-358 -366l-1 -4h285l-14 -71h-392z" />
    <glyph glyph-name="zdotaccent" unicode="&#x17c;" horiz-adv-x="502" 
d="M375 609c-33 0 -48 18 -48 45c0 41 24 72 72 72c32 0 48 -18 48 -45c0 -41 -26 -72 -72 -72zM55 0l14 69l359 367l1 4h-283l14 71h389l-14 -70l-358 -366l-1 -4h285l-14 -71h-392z" />
    <glyph glyph-name="ordfeminine" unicode="&#xaa;" horiz-adv-x="445" 
d="M258 296c-80 0 -117 63 -117 138c0 115 71 217 182 217c51 0 87 -24 99 -54h2l18 47h54l-70 -342h-54l4 47h-2c-24 -31 -66 -53 -116 -53zM281 355c71 0 117 82 117 153c0 47 -23 80 -71 81c-85 2 -117 -81 -117 -149c0 -48 19 -85 71 -85z" />
    <glyph glyph-name="ordmasculine" unicode="&#xba;" horiz-adv-x="414" 
d="M272 296c-87 0 -131 59 -131 135c0 113 67 218 193 218c87 0 131 -60 131 -137c0 -109 -61 -216 -193 -216zM279 356c81 0 117 69 117 152c0 51 -22 81 -69 81c-87 0 -117 -76 -117 -153c0 -50 21 -80 69 -80z" />
    <glyph glyph-name="zero" unicode="0" horiz-adv-x="628" 
d="M311 -9c-137 0 -187 90 -187 218c0 250 118 500 333 500c137 0 187 -90 187 -218c0 -250 -118 -500 -333 -500zM326 67c149 0 231 226 231 416c1 89 -28 150 -115 150c-149 0 -229 -226 -231 -416c-1 -89 28 -150 115 -150z" />
    <glyph glyph-name="one" unicode="1" horiz-adv-x="425" 
d="M230 0l123 605h-4l-192 -126h-10l20 91l199 130h91l-142 -700h-85z" />
    <glyph glyph-name="two" unicode="2" horiz-adv-x="569" 
d="M67 0l13 66l296 269c123 112 139 149 139 209c0 54 -38 92 -107 92c-82 0 -140 -47 -155 -132h-85c22 122 103 208 250 208c117 0 186 -76 186 -165c0 -83 -42 -144 -177 -265l-223 -200l-1 -4h317l-16 -78h-437z" />
    <glyph glyph-name="three" unicode="3" horiz-adv-x="603" 
d="M306 -9c-140 0 -221 81 -197 203h84c-13 -72 25 -128 120 -128c109 0 175 66 175 156c0 67 -47 105 -131 105h-61l15 75h59c91 0 162 59 162 143c0 51 -31 92 -104 92c-89 0 -142 -50 -159 -122h-85c29 123 116 197 258 197c105 0 181 -64 181 -156
c0 -89 -53 -158 -138 -185l-1 -4c63 -23 94 -76 94 -136c0 -129 -91 -240 -272 -240z" />
    <glyph glyph-name="four" unicode="4" horiz-adv-x="588" 
d="M364 0l30 148h-326l18 88l377 464h128l-96 -476h94l-16 -76h-94l-30 -148h-85zM173 224h237l79 391h-4l-312 -387v-4z" />
    <glyph glyph-name="five" unicode="5" horiz-adv-x="594" 
d="M302 -9c-143 0 -221 90 -197 207h85c-14 -72 27 -131 120 -131c134 0 184 100 184 195c0 69 -36 120 -119 120c-67 0 -114 -32 -146 -69h-88l105 387h392l-15 -77h-318l-62 -223h4c32 28 82 57 156 57c119 0 179 -76 179 -180c0 -146 -88 -286 -280 -286z" />
    <glyph glyph-name="six" unicode="6" horiz-adv-x="622" 
d="M319 -9c-137 0 -195 102 -195 240c0 211 97 481 348 481c121 0 189 -73 180 -181h-87c6 64 -37 104 -109 104c-127 0 -217 -135 -233 -274h4c40 56 105 96 191 96c110 0 187 -76 186 -175c-2 -158 -108 -291 -285 -291zM332 67c114 0 181 94 183 195
c1 67 -37 120 -119 120c-118 0 -184 -91 -184 -189c0 -70 39 -126 120 -126z" />
    <glyph glyph-name="seven" unicode="7" horiz-adv-x="541" 
d="M115 0l2 10c80 202 224 405 416 607l1 4h-363l16 79h451l-17 -84c-194 -205 -336 -411 -417 -616h-89z" />
    <glyph glyph-name="eight" unicode="8" horiz-adv-x="602" 
d="M493 370c60 -24 88 -78 88 -140c0 -144 -113 -238 -282 -239c-127 1 -200 62 -200 164c0 100 54 182 160 219l1 4c-47 23 -71 64 -71 117c0 128 104 216 257 217c115 -1 182 -59 182 -151c0 -84 -46 -151 -134 -187zM431 638c-103 -1 -155 -62 -155 -137
c0 -54 34 -95 107 -96c101 1 156 67 156 141c0 54 -34 91 -108 92zM314 65c125 1 180 74 180 161c0 59 -36 104 -126 105c-128 -1 -179 -78 -179 -160c0 -62 37 -105 125 -106z" />
    <glyph glyph-name="nine" unicode="9" horiz-adv-x="622" 
d="M293 -9c-121 0 -189 73 -180 181h87c-6 -64 37 -104 109 -104c127 0 217 135 233 274h-4c-40 -56 -105 -96 -191 -96c-120 0 -186 84 -186 183c0 158 108 283 285 283c137 0 195 -102 195 -240c0 -211 -97 -481 -348 -481zM369 321c118 0 184 91 184 189
c0 70 -39 126 -120 126c-114 0 -181 -94 -183 -195c-1 -67 37 -120 119 -120z" />
    <glyph glyph-name="uni00B9" unicode="&#xb9;" horiz-adv-x="288" 
d="M213 248l75 365h-4l-115 -76h-10l16 76l130 87h75l-92 -452h-75z" />
    <glyph glyph-name="uni00B2" unicode="&#xb2;" horiz-adv-x="403" 
d="M102 253l13 63l186 153c61 50 88 81 88 122c0 27 -18 52 -59 52c-53 0 -82 -37 -88 -68h-75c12 72 75 137 172 137c87 0 128 -55 128 -109c0 -57 -26 -104 -109 -171l-132 -106v-3h193l-15 -70h-302z" />
    <glyph glyph-name="uni00B3" unicode="&#xb3;" horiz-adv-x="416" 
d="M265 247c-100 0 -152 62 -136 141h71c-8 -42 20 -72 72 -72c62 0 98 34 98 84c0 34 -25 54 -73 54h-52l14 68h51c59 0 89 32 89 74c0 26 -21 48 -62 48c-53 0 -82 -29 -92 -69h-72c19 80 76 137 175 137c77 0 129 -41 129 -103c0 -61 -42 -100 -75 -115l-1 -4
c28 -12 47 -42 47 -81c0 -91 -73 -162 -183 -162z" />
    <glyph glyph-name="fraction" unicode="&#x2044;" horiz-adv-x="531" 
d="M-35 -100l2 10l655 890h82l-2 -10l-653 -890h-84z" />
    <glyph glyph-name="onehalf" unicode="&#xbd;" horiz-adv-x="922" 
d="M213 248l75 365h-4l-115 -76h-10l16 76l130 87h75l-92 -452h-75zM175 0l2 10l574 690h77l-2 -10l-572 -690h-79zM570 0l13 63l186 153c61 50 88 81 88 122c0 27 -18 52 -59 52c-53 0 -82 -37 -88 -68h-75c12 72 75 137 172 137c87 0 128 -55 128 -109
c0 -57 -26 -104 -109 -171l-132 -106v-3h193l-15 -70h-302z" />
    <glyph glyph-name="onequarter" unicode="&#xbc;" horiz-adv-x="891" 
d="M213 248l75 365h-4l-115 -76h-10l16 76l130 87h75l-92 -452h-75zM175 0l2 10l574 690h77l-2 -10l-572 -690h-79zM706 0l19 95h-210l16 77l241 280h100l-58 -287h61l-15 -70h-61l-19 -95h-74zM609 165h131l40 201h-4l-167 -197v-4z" />
    <glyph glyph-name="threequarters" unicode="&#xbe;" horiz-adv-x="981" 
d="M265 247c-100 0 -152 62 -136 141h71c-8 -42 20 -72 72 -72c62 0 98 34 98 84c0 34 -25 54 -73 54h-52l14 68h51c59 0 89 32 89 74c0 26 -21 48 -62 48c-53 0 -82 -29 -92 -69h-72c19 80 76 137 175 137c77 0 129 -41 129 -103c0 -61 -42 -100 -75 -115l-1 -4
c28 -12 47 -42 47 -81c0 -91 -73 -162 -183 -162zM265 0l2 10l574 690h77l-2 -10l-572 -690h-79zM796 0l19 95h-210l16 77l241 280h100l-58 -287h61l-15 -70h-61l-19 -95h-74zM699 165h131l40 201h-4l-167 -197v-4z" />
    <glyph glyph-name="asterisk" unicode="*" horiz-adv-x="486" 
d="M283 382l41 126l-3 3l-121 -71l-22 68l131 41l1 4l-114 41l49 68l90 -74l4 4l12 128h76l-40 -128l4 -4l120 74l21 -68l-130 -41l-1 -4l113 -41l-48 -68l-93 71l-5 -3l-9 -126h-76z" />
    <glyph glyph-name="backslash" unicode="\" horiz-adv-x="388" 
d="M275 -133l-107 860l2 10h72l106 -860l-2 -10h-71z" />
    <glyph glyph-name="periodcentered" unicode="&#xb7;" horiz-adv-x="238" 
d="M168 241c-33 0 -48 19 -48 47c0 41 26 74 73 74c32 0 48 -20 48 -47c0 -41 -28 -74 -73 -74z" />
    <glyph glyph-name="bullet" unicode="&#x2022;" horiz-adv-x="386" 
d="M225 156c-74 0 -109 44 -109 107c0 91 60 166 164 166c72 0 109 -45 109 -107c0 -92 -64 -166 -164 -166z" />
    <glyph glyph-name="colon" unicode=":" horiz-adv-x="238" 
d="M190 351c-32 0 -48 19 -48 47c0 41 26 74 73 74c32 0 48 -20 48 -47c0 -41 -27 -74 -73 -74zM117 -9c-32 0 -48 19 -48 47c0 41 26 74 73 74c32 0 48 -20 48 -47c0 -41 -28 -74 -73 -74z" />
    <glyph glyph-name="comma" unicode="," horiz-adv-x="238" 
d="M15 -134l2 10l77 227h99l-2 -10l-108 -227h-68z" />
    <glyph glyph-name="ellipsis" unicode="&#x2026;" horiz-adv-x="790" 
d="M123 -9c-32 0 -48 19 -48 47c0 41 26 74 73 74c32 0 48 -20 48 -47c0 -41 -28 -74 -73 -74zM393 -9c-32 0 -48 19 -48 47c0 41 26 74 73 74c32 0 48 -20 48 -47c0 -41 -28 -74 -73 -74zM663 -9c-32 0 -48 19 -48 47c0 41 26 74 73 74c32 0 48 -20 48 -47
c0 -41 -28 -74 -73 -74z" />
    <glyph glyph-name="exclam" unicode="!" horiz-adv-x="278" 
d="M159 222l57 382l19 96h94l-19 -96l-104 -382h-47zM137 -9c-32 0 -48 19 -48 47c0 41 26 74 73 74c32 0 48 -20 48 -47c0 -41 -28 -74 -73 -74z" />
    <glyph glyph-name="exclamdown" unicode="&#xa1;" horiz-adv-x="278" 
d="M220 399c-33 0 -48 19 -48 47c0 41 26 74 73 74c32 0 48 -19 48 -48c0 -40 -28 -73 -73 -73zM55 -189l19 96l99 382h47l-52 -382l-19 -96h-94z" />
    <glyph glyph-name="numbersign" unicode="#" horiz-adv-x="685" 
d="M722 429h-136l-61 -163h114l-15 -74h-126l-72 -192h-72l72 192h-148l-72 -192h-72l72 192h-117l15 74h129l61 163h-107l15 74h120l73 197h72l-73 -197h148l73 197h72l-73 -197h123zM453 266l61 163h-148l-61 -163h148z" />
    <glyph glyph-name="period" unicode="." horiz-adv-x="238" 
d="M117 -9c-32 0 -48 19 -48 47c0 41 26 74 73 74c32 0 48 -20 48 -47c0 -41 -28 -74 -73 -74z" />
    <glyph glyph-name="question" unicode="?" horiz-adv-x="543" 
d="M264 222l3 16c17 90 60 121 126 167l36 25c52 36 76 69 76 118s-32 87 -102 87c-91 0 -142 -55 -154 -127h-86c16 107 97 202 251 202c110 0 181 -63 181 -153c0 -80 -42 -134 -111 -181l-49 -33c-51 -34 -76 -54 -86 -105l-3 -16h-82zM259 -9c-32 0 -48 19 -48 47
c0 41 26 74 73 74c32 0 48 -20 48 -47c0 -41 -28 -74 -73 -74z" />
    <glyph glyph-name="questiondown" unicode="&#xbf;" horiz-adv-x="543" 
d="M361 399c-32 0 -48 20 -48 47c0 41 28 74 73 74c32 0 48 -19 48 -47c0 -41 -26 -74 -73 -74zM231 -199c-110 0 -181 63 -181 153c0 80 42 134 111 181l49 33c51 34 76 54 86 105l3 16h82l-3 -16c-17 -90 -60 -121 -126 -167l-36 -25c-52 -36 -76 -69 -76 -118
s32 -87 102 -87c91 0 142 55 154 127h86c-16 -107 -97 -202 -251 -202z" />
    <glyph glyph-name="quotedbl" unicode="&#x22;" horiz-adv-x="416" 
d="M181 440l13 147l23 113h86l-23 -113l-45 -147h-54zM361 440l13 147l23 113h86l-23 -113l-45 -147h-54z" />
    <glyph glyph-name="quotesingle" unicode="'" horiz-adv-x="236" 
d="M181 440l13 147l23 113h86l-23 -113l-45 -147h-54z" />
    <glyph glyph-name="semicolon" unicode=";" horiz-adv-x="238" 
d="M190 351c-32 0 -48 19 -48 47c0 41 26 74 73 74c32 0 48 -20 48 -47c0 -41 -27 -74 -73 -74zM15 -134l2 10l77 227h99l-2 -10l-108 -227h-68z" />
    <glyph glyph-name="slash" unicode="/" horiz-adv-x="388" 
d="M-12 -133l2 10l456 860h77l-2 -10l-457 -860h-76z" />
    <glyph glyph-name="underscore" unicode="_" horiz-adv-x="591" 
d="M40 -98l15 71h471l-15 -71h-471z" />
    <glyph glyph-name="braceleft" unicode="{" horiz-adv-x="430" 
d="M466 750h27l-14 -65h-23c-76 0 -106 -33 -121 -105l-35 -170c-13 -66 -52 -104 -112 -112l-1 -2v-2c57 -8 81 -46 67 -112l-35 -170c-15 -72 3 -105 79 -105h23l-13 -65h-27c-124 0 -159 54 -136 167l32 157c13 64 -22 88 -75 90l16 80c54 2 99 26 112 90l32 157
c23 113 80 167 204 167z" />
    <glyph glyph-name="braceright" unicode="}" horiz-adv-x="430" 
d="M374 426c-13 -64 22 -88 74 -90l-16 -80c-53 -2 -98 -26 -111 -90l-32 -157c-23 -113 -80 -167 -204 -167h-27l13 65h23c76 0 106 33 121 105l35 170c13 66 52 104 113 112v2l1 2c-58 8 -81 46 -68 112l35 170c15 72 -3 105 -79 105h-23l14 65h27c124 0 159 -54 136 -167
z" />
    <glyph glyph-name="bracketleft" unicode="[" horiz-adv-x="345" 
d="M18 -158l185 908h202l-13 -64h-128l-159 -781h131l-13 -63h-205z" />
    <glyph glyph-name="bracketright" unicode="]" horiz-adv-x="345" 
d="M58 -158l13 63h131l159 781h-128l13 64h202l-185 -908h-205z" />
    <glyph glyph-name="parenleft" unicode="(" horiz-adv-x="365" 
d="M426 740c-92 -97 -196 -244 -237 -444c-40 -200 5 -347 56 -444l-2 -10h-60c-60 101 -113 254 -73 454c41 200 149 353 253 454h65z" />
    <glyph glyph-name="parenright" unicode=")" horiz-adv-x="365" 
d="M302 750c60 -101 113 -254 73 -454c-41 -200 -149 -353 -253 -454h-65l2 10c92 97 196 244 237 444c40 200 -5 347 -56 444l2 10h60z" />
    <glyph glyph-name="emdash" unicode="&#x2014;" horiz-adv-x="1102" 
d="M112 254l16 78h982l-16 -78h-982z" />
    <glyph glyph-name="endash" unicode="&#x2013;" horiz-adv-x="622" 
d="M112 254l16 78h502l-16 -78h-502z" />
    <glyph glyph-name="hyphen" unicode="-" horiz-adv-x="466" 
d="M132 254l16 78h306l-16 -78h-306z" />
    <glyph glyph-name="guillemotleft" unicode="&#xab;" horiz-adv-x="572" 
d="M219 66l-122 212l2 10l204 212h81l-2 -10l-182 -212l97 -202l-2 -10h-76zM449 66l-122 212l2 10l204 212h81l-2 -10l-182 -212l97 -202l-2 -10h-76z" />
    <glyph glyph-name="guillemotright" unicode="&#xbb;" horiz-adv-x="572" 
d="M123 500l122 -212l-2 -10l-204 -212h-81l2 10l182 212l-97 202l2 10h76zM353 500l122 -212l-2 -10l-204 -212h-81l2 10l182 212l-97 202l2 10h76z" />
    <glyph glyph-name="guilsinglleft" unicode="&#x2039;" horiz-adv-x="342" 
d="M219 66l-122 212l2 10l204 212h81l-2 -10l-182 -212l97 -202l-2 -10h-76z" />
    <glyph glyph-name="guilsinglright" unicode="&#x203a;" horiz-adv-x="342" 
d="M73 66l2 10l182 212l-97 202l2 10h76l122 -212l-2 -10l-204 -212h-81z" />
    <glyph glyph-name="quotedblbase" unicode="&#x201e;" horiz-adv-x="384" 
d="M15 -134l2 10l77 227h99l-2 -10l-108 -227h-68zM185 -134l2 10l77 227h99l-2 -10l-108 -227h-68z" />
    <glyph glyph-name="quotedblleft" unicode="&#x201c;" horiz-adv-x="384" 
d="M314 700l-2 -10l-77 -227h-99l2 10l108 227h68zM484 700l-2 -10l-77 -227h-99l2 10l108 227h68z" />
    <glyph glyph-name="quotedblright" unicode="&#x201d;" horiz-adv-x="384" 
d="M136 463l2 10l77 227h99l-2 -10l-108 -227h-68zM306 463l2 10l77 227h99l-2 -10l-108 -227h-68z" />
    <glyph glyph-name="quoteleft" unicode="&#x2018;" horiz-adv-x="214" 
d="M314 700l-2 -10l-77 -227h-99l2 10l108 227h68z" />
    <glyph glyph-name="quoteright" unicode="&#x2019;" horiz-adv-x="214" 
d="M136 463l2 10l77 227h99l-2 -10l-108 -227h-68z" />
    <glyph glyph-name="quotesinglbase" unicode="&#x201a;" horiz-adv-x="214" 
d="M15 -134l2 10l77 227h99l-2 -10l-108 -227h-68z" />
    <glyph glyph-name="space" unicode=" " horiz-adv-x="300" 
 />
    <glyph glyph-name="cent" unicode="&#xa2;" horiz-adv-x="543" 
d="M578 426h-84c8 57 -18 95 -70 106l-76 -374c57 10 97 47 115 104h84c-29 -99 -93 -169 -214 -180l-17 -82h-68l17 83c-102 13 -153 87 -153 196c0 174 91 316 260 330l18 91h68l-19 -92c106 -14 149 -84 139 -182zM199 291c0 -67 23 -119 81 -132l76 373
c-111 -20 -157 -137 -157 -241z" />
    <glyph glyph-name="currency" unicode="&#xa4;" horiz-adv-x="594" 
d="M106 -14l-47 59l89 76c-10 22 -16 54 -16 83c0 59 27 111 66 156l-59 77l72 59l59 -78c39 22 81 35 123 35c40 0 76 -11 105 -31l87 74l48 -59l-85 -73c13 -24 20 -59 20 -91c0 -59 -28 -114 -69 -157l54 -71l-71 -59l-55 72c-37 -21 -80 -33 -121 -33
c-44 0 -82 14 -111 37zM321 97c89 0 170 72 170 168c0 68 -45 115 -113 115c-89 0 -172 -71 -172 -167c0 -69 47 -116 115 -116z" />
    <glyph glyph-name="dollar" unicode="$" horiz-adv-x="632" 
d="M667 501h-89c10 66 -19 114 -98 126l-47 -230l25 -5c107 -23 163 -79 163 -165c0 -129 -88 -226 -270 -235l-17 -82h-68l17 82c-145 12 -211 96 -190 218h89c-12 -79 28 -129 117 -139l52 254l-25 6c-99 22 -153 77 -153 160c0 126 92 211 255 218l17 81h68l-17 -84
c122 -15 192 -94 171 -205zM367 412h1l44 216c-87 -8 -145 -49 -145 -127c0 -46 38 -75 100 -89zM424 309l-8 2l-49 -239c98 10 161 59 161 140c0 54 -40 83 -104 97z" />
    <glyph glyph-name="Euro" unicode="&#x20ac;" horiz-adv-x="759" 
d="M794 466h-90c9 97 -39 161 -157 161c-126 0 -205 -74 -247 -166h279l-36 -76h-269c-6 -27 -10 -53 -12 -79h250l-35 -76h-213c11 -91 60 -158 170 -158c116 0 192 59 222 155h89c-42 -146 -148 -236 -328 -236c-148 0 -236 95 -247 239h-63l15 76h49c2 27 6 54 11 79h-44
l16 76h51c58 148 182 248 352 248c169 0 252 -95 237 -243z" />
    <glyph glyph-name="florin" unicode="&#x192;" horiz-adv-x="434" 
d="M40 -229v10l86 561h-85v70h96l23 153c15 103 73 159 170 159c27 0 47 -4 64 -9v-71c-18 5 -35 8 -59 8c-55 -1 -84 -38 -92 -91l-23 -149h132v-70h-142l-86 -571h-84z" />
    <glyph glyph-name="sterling" unicode="&#xa3;" horiz-adv-x="601" 
d="M41 0l16 81c53 1 85 28 96 80l31 151h-81l15 73h81l26 130c20 102 100 197 256 197c134 0 194 -99 173 -200h-80c13 62 -22 125 -110 125c-86 0 -141 -54 -155 -122l-26 -130h248l-15 -73h-248l-32 -155c-6 -30 -20 -61 -48 -75l-1 -4h390l-16 -78h-520z" />
    <glyph glyph-name="yen" unicode="&#xa5;" horiz-adv-x="649" 
d="M761 700l-2 -10l-264 -317h133l-17 -81h-183l-18 -89h183l-16 -81h-183l-25 -122h-88l25 122h-184l16 81h184l18 89h-184l17 81h132l-135 317l2 10h93l130 -324h4l261 324h101z" />
    <glyph glyph-name="plus" unicode="+" horiz-adv-x="476" 
d="M214 70l42 207h-195l15 72h195l42 207h80l-42 -207h191l-15 -72h-191l-42 -207h-80z" />
    <glyph glyph-name="minus" unicode="&#x2212;" horiz-adv-x="476" 
d="M61 277l15 72h466l-15 -72h-466z" />
    <glyph glyph-name="multiply" unicode="&#xd7;" horiz-adv-x="411" 
d="M86 117l-51 54l187 152l-120 141l60 51l119 -144l178 144l51 -54l-182 -147l124 -151l-60 -46l-123 149z" />
    <glyph glyph-name="divide" unicode="&#xf7;" horiz-adv-x="476" 
d="M323 418c-33 0 -49 19 -49 46c0 41 27 73 73 73c32 0 49 -19 49 -46c0 -41 -28 -73 -73 -73zM61 277l15 72h466l-15 -72h-466zM256 89c-33 0 -48 19 -48 46c0 41 26 73 72 73c32 0 49 -19 49 -46c0 -41 -28 -73 -73 -73z" />
    <glyph glyph-name="equal" unicode="=" horiz-adv-x="476" 
d="M80 370l15 72h466l-15 -72h-466zM42 180l14 72h466l-14 -72h-466z" />
    <glyph glyph-name="notequal" unicode="&#x2260;" horiz-adv-x="476" 
d="M546 370h-157l-97 -118h230l-14 -72h-275l-66 -80h-77l2 10l57 70h-107l14 72h152l97 118h-225l15 72h269l66 80h77l-2 -10l-57 -70h113z" />
    <glyph glyph-name="greater" unicode="&#x3e;" horiz-adv-x="520" 
d="M48 -12l18 96l382 201l1 4l-300 196l18 91l370 -245l-19 -96z" />
    <glyph glyph-name="less" unicode="&#x3c;" horiz-adv-x="520" 
d="M468 -12l-370 249l19 90l470 249l-18 -97l-382 -201l-1 -4l300 -201z" />
    <glyph glyph-name="greaterequal" unicode="&#x2265;" horiz-adv-x="521" 
d="M76 128l17 81l387 151l1 4l-326 151l16 81l384 -184l-21 -100zM50 0l15 72h421l-15 -72h-421z" />
    <glyph glyph-name="lessequal" unicode="&#x2264;" horiz-adv-x="521" 
d="M497 128l-384 184l21 100l458 184l-16 -81l-388 -151l-1 -4l327 -151zM50 0l15 72h421l-15 -72h-421z" />
    <glyph glyph-name="plusminus" unicode="&#xb1;" horiz-adv-x="476" 
d="M243 210l34 167h-195l14 72h195l34 167h80l-34 -167h191l-14 -72h-191l-34 -167h-80zM19 67l14 72h466l-14 -72h-466z" />
    <glyph glyph-name="asciitilde" unicode="~" horiz-adv-x="573" 
d="M429 217c-31 0 -62 9 -92 27l-40 25c-17 10 -34 15 -51 15c-37 0 -69 -20 -98 -57l-48 41c44 63 100 95 162 95c29 0 60 -9 88 -26l41 -25c17 -11 36 -16 54 -16c37 0 69 20 98 57l48 -41c-44 -63 -100 -95 -162 -95z" />
    <glyph glyph-name="percent" unicode="%" horiz-adv-x="854" 
d="M294 348c-83 0 -123 57 -123 133c0 113 53 231 186 231c82 0 121 -57 121 -133c0 -113 -51 -231 -184 -231zM151 0l2 10l614 690h77l-2 -10l-612 -690h-79zM301 412c91 0 106 105 106 159c0 46 -17 77 -58 77c-91 0 -106 -105 -106 -159c0 -46 16 -77 58 -77zM640 -9
c-82 0 -121 57 -121 133c0 113 52 231 185 231c82 0 122 -57 122 -133c0 -113 -53 -231 -186 -231zM648 55c91 0 106 105 106 159c0 46 -16 77 -58 77c-91 0 -106 -105 -106 -159c0 -46 17 -77 58 -77z" />
    <glyph glyph-name="perthousand" unicode="&#x2030;" horiz-adv-x="1204" 
d="M288 348c-83 0 -117 57 -117 133c0 113 58 231 191 231c82 0 116 -57 116 -133c0 -113 -57 -231 -190 -231zM151 0l2 10l614 690h77l-2 -10l-612 -690h-79zM301 412c91 0 106 105 106 159c0 46 -17 77 -58 77c-91 0 -106 -105 -106 -159c0 -46 16 -77 58 -77zM635 -9
c-82 0 -116 57 -116 133c0 113 57 231 190 231c82 0 117 -57 117 -133c0 -113 -58 -231 -191 -231zM985 -9c-82 0 -116 57 -116 133c0 113 57 231 190 231c82 0 117 -57 117 -133c0 -113 -58 -231 -191 -231zM648 55c91 0 106 105 106 159c0 46 -16 77 -58 77
c-91 0 -106 -105 -106 -159c0 -46 17 -77 58 -77zM998 55c91 0 106 105 106 159c0 46 -16 77 -58 77c-91 0 -106 -105 -106 -159c0 -46 17 -77 58 -77z" />
    <glyph glyph-name="at" unicode="@" horiz-adv-x="916" 
d="M543 -100c-236 0 -397 157 -397 404c0 240 168 405 406 405c216 0 379 -135 379 -351c0 -136 -58 -264 -187 -264c-48 0 -94 24 -101 72h-4c-23 -45 -67 -69 -121 -69c-101 0 -161 82 -161 197c0 114 64 202 173 202c44 0 87 -24 106 -60h4l7 49h68l-9 -266
c-1 -32 9 -54 47 -54c66 0 104 90 104 193c0 175 -128 284 -308 284c-194 0 -327 -146 -327 -344s132 -330 322 -330c77 0 149 11 205 35v-66c-60 -27 -132 -37 -206 -37zM530 167c72 0 104 63 104 137c0 71 -31 124 -98 124c-68 0 -99 -63 -99 -135c0 -69 29 -126 93 -126z
" />
    <glyph glyph-name="ampersand" unicode="&#x26;" horiz-adv-x="731" 
d="M762 398l-2 -10c-60 -105 -117 -190 -177 -253l93 -125l-2 -10h-111l-51 70c-69 -52 -142 -79 -224 -79c-108 0 -190 64 -190 160c0 109 67 172 187 230l-7 10c-30 41 -44 81 -44 122c0 111 85 195 214 196h2c94 0 150 -57 150 -135c0 -86 -54 -153 -184 -215l119 -160
c49 52 97 120 140 199h87zM432 632c-65 -1 -111 -46 -111 -104c0 -35 18 -68 46 -104l3 -4c91 41 145 77 145 142c0 42 -28 70 -81 70h-2zM297 69c55 0 112 23 168 66l-135 185c-122 -58 -143 -101 -143 -159c0 -57 52 -92 110 -92z" />
    <glyph glyph-name="paragraph" unicode="&#xb6;" horiz-adv-x="647" 
d="M197 -104l93 457c-91 0 -154 70 -154 158c0 118 114 219 231 219h329l-15 -69h-69l-155 -765h-75l155 765h-110l-155 -765h-75z" />
    <glyph glyph-name="section" unicode="&#xa7;" horiz-adv-x="545" 
d="M223 -245c-111 0 -176 73 -157 179h83c-11 -67 21 -107 84 -107c77 0 119 44 119 104c0 26 -10 49 -27 66l-176 171c-29 29 -42 65 -42 103c0 82 57 137 118 167c-14 22 -22 51 -22 81c0 109 80 190 213 190c111 0 176 -73 158 -179h-83c10 67 -21 107 -84 107
c-71 0 -119 -43 -119 -105c0 -25 10 -48 27 -65l158 -153c38 -37 58 -80 58 -126c0 -76 -62 -132 -117 -162c15 -22 23 -51 23 -81c0 -109 -72 -190 -214 -190zM375 72c40 20 71 55 71 97c0 26 -10 54 -29 73l-152 150c-47 -23 -73 -62 -73 -102c0 -22 8 -45 23 -60z" />
    <glyph glyph-name="copyright" unicode="&#xa9;" horiz-adv-x="820" 
d="M544 709c205 0 328 -155 287 -359c-42 -224 -178 -359 -413 -359c-205 0 -327 155 -287 359c43 224 188 359 413 359zM431 55c175 0 297 101 333 295c35 174 -58 295 -233 295s-296 -101 -333 -295c-34 -174 58 -295 233 -295zM523 548c92 0 143 -62 131 -139h-63
c7 51 -22 82 -79 82c-103 0 -145 -98 -145 -185c0 -59 25 -103 86 -103c59 0 98 30 115 81h63c-24 -81 -87 -137 -188 -137c-94 0 -141 59 -141 150c0 140 81 251 221 251z" />
    <glyph glyph-name="registered" unicode="&#xae;" horiz-adv-x="474" 
d="M298 298c-101 0 -165 69 -165 167c0 138 104 245 248 245c101 0 166 -69 166 -167c0 -138 -105 -245 -249 -245zM307 343c109 0 191 77 191 197c0 79 -48 125 -126 125c-109 0 -191 -77 -191 -197c0 -79 48 -125 126 -125zM243 397l42 208h86c40 0 62 -22 62 -53
c0 -30 -18 -62 -53 -75l34 -74l-1 -6h-44l-32 74h-35l-15 -74h-44zM310 510h41c20 0 36 10 36 34c0 15 -10 22 -25 22h-41z" />
    <glyph glyph-name="trademark" unicode="&#x2122;" horiz-adv-x="733" 
d="M213 373l55 269h-102l11 58h264l-11 -58h-101l-55 -269h-61zM431 373l66 327h68l68 -174h2l138 174h67l-66 -327h-58l47 234h-2l-142 -178h-10l-70 179h-2l-48 -235h-58z" />
    <glyph glyph-name="degree" unicode="&#xb0;" horiz-adv-x="466" 
d="M311 368c-87 0 -145 60 -145 141c0 112 88 203 209 203c87 0 145 -60 145 -141c0 -112 -88 -203 -209 -203zM321 432c76 0 128 61 128 130c0 48 -29 86 -84 86c-76 0 -128 -61 -128 -130c0 -48 29 -86 84 -86z" />
    <glyph glyph-name="bar" unicode="|" horiz-adv-x="274" 
d="M72 -138l183 898h74l-183 -898h-74z" />
    <glyph glyph-name="brokenbar" unicode="&#xa6;" horiz-adv-x="274" 
d="M182 402l73 358h74l-73 -358h-74zM72 -138l73 358h74l-73 -358h-74z" />
    <glyph glyph-name="dagger" unicode="&#x2020;" horiz-adv-x="494" 
d="M507 557l-14 -72h-111l-30 -149l-43 -165h-54l23 165l30 149h-109l14 72h110l29 143h74l-29 -143h110z" />
    <glyph glyph-name="daggerdbl" unicode="&#x2021;" horiz-adv-x="494" 
d="M381 485l-36 -135l-19 -134h112l-15 -72h-110l-29 -143h-74l29 143h-110l15 72h112l35 134l20 135h-112l14 72h110l29 143h74l-29 -143h110l-14 -72h-112z" />
    <glyph glyph-name="uni2116" unicode="&#x2116;" horiz-adv-x="1157" 
d="M963 333c-95 0 -138 62 -138 142c0 119 67 234 206 234c94 0 138 -63 138 -143c0 -116 -63 -233 -206 -233zM100 0l142 700h95l245 -557h4l113 557h86l-142 -700h-96l-245 554h-4l-113 -554h-85zM973 402c85 0 122 80 122 154c0 49 -21 84 -74 84
c-84 0 -122 -80 -122 -153c0 -50 22 -85 74 -85zM786 206l14 71h306l-14 -71h-306z" />
    <glyph glyph-name="asciicircum" unicode="^" horiz-adv-x="588" 
d="M113 310l2 10l276 380h90l122 -380l-2 -10h-81l-93 311h-4l-219 -311h-91z" />
    <glyph glyph-name="uni0326" unicode="&#x326;" horiz-adv-x="0" 
d="M-205 -211l2 10l49 150h94l-2 -10l-80 -150h-63z" />
    <glyph glyph-name="acute" unicode="&#xb4;" horiz-adv-x="261" 
d="M154 583l2 10l103 136h115l-2 -10l-143 -136h-75z" />
    <glyph glyph-name="breve" unicode="&#x2d8;" horiz-adv-x="362" 
d="M305 585c-94 0 -139 60 -122 142h73c-6 -37 9 -65 60 -65c56 0 78 29 86 65h73c-7 -82 -57 -142 -170 -142z" />
    <glyph glyph-name="caron" unicode="&#x2c7;" horiz-adv-x="385" 
d="M256 585l-75 132l2 10h79l56 -80h4l88 80h88l-2 -10l-129 -132h-111z" />
    <glyph glyph-name="cedilla" unicode="&#xb8;" horiz-adv-x="300" 
d="M104 -218c-60 0 -107 29 -95 91h60c-4 -21 11 -34 45 -34c27 0 55 12 55 38c0 15 -14 27 -39 27h-32l-18 31l56 79h71l-48 -60c49 0 82 -27 82 -68c0 -51 -42 -104 -137 -104z" />
    <glyph glyph-name="circumflex" unicode="&#x2c6;" horiz-adv-x="385" 
d="M154 585l2 10l129 132h111l75 -132l-2 -10h-80l-56 80h-4l-88 -80h-87z" />
    <glyph glyph-name="dieresis" unicode="&#xa8;" horiz-adv-x="385" 
d="M229 609c-33 0 -48 18 -48 45c0 41 24 72 72 72c32 0 48 -18 48 -45c0 -41 -26 -72 -72 -72zM404 609c-33 0 -48 18 -48 45c0 41 24 72 72 72c32 0 48 -18 48 -45c0 -41 -26 -72 -72 -72z" />
    <glyph glyph-name="dotaccent" unicode="&#x2d9;" horiz-adv-x="176" 
d="M212 609c-33 0 -48 18 -48 45c0 41 24 72 72 72c32 0 48 -18 48 -45c0 -41 -26 -72 -72 -72z" />
    <glyph glyph-name="grave" unicode="`" horiz-adv-x="261" 
d="M270 583l-89 136l2 10h115l49 -136l-2 -10h-75z" />
    <glyph glyph-name="hungarumlaut" unicode="&#x2dd;" horiz-adv-x="364" 
d="M154 583l2 10l76 136h107l-2 -10l-120 -136h-63zM292 583l2 10l81 136h107l-2 -10l-125 -136h-63z" />
    <glyph glyph-name="macron" unicode="&#xaf;" horiz-adv-x="343" 
d="M161 617l16 81h273l-16 -81h-273z" />
    <glyph glyph-name="ogonek" unicode="&#x2db;" horiz-adv-x="235" 
d="M106 -216c-55 0 -97 31 -97 84c0 82 75 125 131 148l60 -16c-46 -20 -106 -53 -106 -106c0 -27 21 -38 45 -38c16 0 24 2 33 4l-14 -68c-14 -5 -27 -8 -52 -8z" />
    <glyph glyph-name="ring" unicode="&#x2da;" horiz-adv-x="293" 
d="M262 572c-55 0 -91 42 -91 94c0 74 59 125 136 125c57 0 92 -41 92 -94c0 -74 -56 -125 -137 -125zM274 633c37 0 60 25 60 57c0 23 -15 40 -40 40c-38 0 -59 -27 -59 -59c0 -22 14 -38 39 -38z" />
    <glyph glyph-name="tilde" unicode="&#x2dc;" horiz-adv-x="385" 
d="M375 599c-26 0 -45 10 -62 22l-12 9c-11 8 -22 14 -38 14c-21 0 -40 -16 -46 -43h-60l3 15c13 65 63 98 118 98c27 0 46 -10 63 -22l12 -9c11 -8 24 -14 37 -14c22 0 41 18 46 43h59l-3 -15c-13 -66 -62 -98 -117 -98z" />
    <glyph glyph-name="caron.Slovak" horiz-adv-x="174" 
d="M148 530l34 170h94l-2 -10l-67 -160h-59z" />
    </font>
</defs>
</svg>
